<?xml version="1.0" encoding="UTF-8" standalone="no"?>
<!-- Created with Inkscape (http://www.inkscape.org/) -->
<svg xmlns:rdf="http://www.w3.org/1999/02/22-rdf-syntax-ns#" xmlns="http://www.w3.org/2000/svg" xmlns:cc="http://creativecommons.org/ns#" xmlns:xlink="http://www.w3.org/1999/xlink" xmlns:dc="http://purl.org/dc/elements/1.1/" xmlns:svg="http://www.w3.org/2000/svg" xmlns:inkscape="http://www.inkscape.org/namespaces/inkscape" xmlns:sodipodi="http://sodipodi.sourceforge.net/DTD/sodipodi-0.dtd" xmlns:ns1="http://sozi.baierouge.fr" id="svg2" viewBox="0 0 498 635" version="1.1" inkscape:version="0.91 r13725">
  <defs id="defs4">
    <clipPath id="clipPath3997">
      <rect id="rect3999" y="-124.22" width="499.61" x="-39.016" height="636.94"/>
    </clipPath>
  </defs>
  <g id="layer1">
    <g id="g3990" transform="translate(39.016 124.22)" clip-path="url(#clipPath3997)">
      <use id="use3919" xlink:href="#path2996" transform="translate(249.81 318.47)" height="1052.3622" width="744.09448" y="0" x="0"/>
      <use id="use3921" xlink:href="#use3919" transform="translate(-499.61)" height="1052.3622" width="744.09448" y="0" x="0"/>
      <use id="use3952" xlink:href="#path2996" transform="translate(249.81 -318.47)" height="1052.3622" width="744.09448" y="0" x="0"/>
      <use id="use3954" xlink:href="#use3919" transform="translate(-499.61 -636.94)" height="1052.3622" width="744.09448" y="0" x="0"/>
      <path id="path2996" style="fill:#0065ff" d="m210.64 1.0471c-0.29917 0.10284-1.0534 0.64462-2.25 3.1875-1.5955 3.3905-4.1784 12.369-5.375 14.563-1.1966 2.1939-2.3925 2.5938-4.1875 2.5938s-2.9881 0.18115-3.1875 2.375c-0.19944 2.1939-0.22612 4.8061-0.625 7s-1.1959 2.3915-4.1875 1.5938c-2.9916-0.79776-14.551-3.3933-21.531-1-6.9804 2.3933-14.143 7.9743-15.938 9.9688-1.795 1.9944-1.8041 2.9954 1.1875 3.5938 2.9916 0.59832 9.1611 0.0056 15.344 2 6.1827 1.9944 15.579 6.1712 21.562 13.75 5.9832 7.5788 10.553 14.166 11.75 19.75 1.1966 5.5844 0.99822 8.1738 2.5938 9.9688 1.5955 1.795 1.0112 2 5 2s3.4045-0.20502 5-2 1.3971-4.3844 2.5938-9.9688c1.1966-5.5844 5.7668-12.171 11.75-19.75 5.9832-7.5788 15.38-11.756 21.562-13.75 6.1827-1.9944 12.352-1.4017 15.344-2 2.9916-0.59832 2.9825-1.5993 1.1875-3.5938-1.795-1.9944-8.9571-7.5755-15.938-9.9688-6.9804-2.3933-18.54 0.20224-21.531 1-2.9916 0.79776-3.7886 0.6001-4.1875-1.5938-0.39888-2.1939-0.42556-4.8061-0.625-7s-1.3925-2.375-3.1875-2.375-2.9908-0.3999-4.1875-2.5938c-1.1966-2.1939-3.7795-11.172-5.375-14.563-1.1966-2.5429-1.9508-3.0847-2.25-3.1875-0.0998-0.03428-0.15625 0-0.15625 0s-0.0565-0.03428-0.15625 0zm-75.13 56.219c-2.9734 0.05405-5.0648 0.2816-5.875 0.40625-2.5927 0.39888-2.6029 2.4118-1.4062 4.4062 1.1966 1.9944 2.1977 4.784 3.5938 5.7813 1.3961 0.9972 6.172 0.99542 9.5625 1.5938 3.3905 0.59832 14.953 3.797 18.344 7.1875 3.3905 3.3905 14.176 10.958 14.375 20.531 0.19944 9.5732-0.0102 14.145-1.4062 16.938-1.3961 2.7922 1.2078 5.1885 4 7.7812s8.3716 6.4167 9.9688 7.375c2.9916 1.795 3.7988 2.4126 5.5938 0.21875 1.795-2.1939 4.9761-9.5663 5.375-13.156 0.39888-3.5899-0.99288-21.936-7.375-30.313-6.3821-8.3765-11.162-15.976-26.719-23.156-10.695-4.9362-21.49-5.7127-28.031-5.5938zm147.91 0c-6.5946 0.13645-16.017 1.2746-25.375 5.5938-15.556 7.1799-20.337 14.78-26.719 23.156-6.3821 8.3765-7.7739 26.723-7.375 30.313 0.39889 3.59 3.58 10.962 5.375 13.156 1.795 2.1938 2.6021 1.5762 5.5938-0.21875 1.5972-0.95832 7.1766-4.7823 9.9688-7.375s5.3961-4.9891 4-7.7812c-1.396-2.7922-1.6057-7.3643-1.4062-16.938 0.19944-9.5732 10.984-17.141 14.375-20.531 3.3905-3.3905 14.953-6.5892 18.344-7.1875 3.3905-0.59833 8.1664-0.59655 9.5625-1.5938 1.3961-0.99721 2.3971-3.7868 3.5938-5.7813 1.1966-1.9944 1.1865-4.0074-1.4062-4.4062-0.81023-0.12465-2.9016-0.3522-5.875-0.40625-0.81767-0.01486-1.7142-0.01949-2.6562 0zm-168.16 2.2188c-2.3933 0-8.5856 3.1903-12.375 4.1875-3.7894 0.99721-17.538 8.9771-22.125 11.969-4.5872 2.9916-15.552 11.973-18.344 15.562-2.7922 3.5899-5.6291 6.4115-7 8.1562-2.1939 2.7922-0.39609 5.3971 1 6.5938 1.3961 1.1966 3.3907 1.204 6.7812 0.40625 3.3905-0.79777 5.9982-1.0102 7.5938-2.4062 1.5955-1.3961 4.1885-5.001 6.7812-7.5938 2.5927-2.5927 11.377-11.157 16.562-13.75 5.1855-2.5927 14.934-8.5772 18.125-9.375 3.1911-0.79776 6.7942-1.5965 9.1875-2.5938 2.3933-0.9972 1.8069-2.8016-0.1875-5.5938s-3.6067-5.5625-6-5.5625zm191.06 0c-2.3933 0-4.0056 2.7703-6 5.5625s-2.5808 4.5966-0.1875 5.5938c2.3933 0.99721 5.9964 1.796 9.1875 2.5938 3.1911 0.79777 12.94 6.7823 18.125 9.375 5.1855 2.5927 13.97 11.157 16.562 13.75 2.5927 2.5927 5.1857 6.1977 6.7812 7.5938s4.2032 1.6085 7.5938 2.4062c3.3905 0.79776 5.3852 0.7904 6.7812-0.40625 1.3961-1.1966 3.1938-3.8016 1-6.5938-1.3709-1.7448-4.2078-4.5663-7-8.1562s-13.757-12.571-18.344-15.562c-4.5872-2.9916-18.336-10.972-22.125-11.969-3.7894-0.99721-9.9817-4.1875-12.375-4.1875zm-169.84 17.375c-1.5917 0.0319-3.0406 0.1927-4.25 0.5625-2.8374 0.86755-1.2132 2.4017 0.78125 3 1.9944 0.59832 13.761 2.5846 17.75 3.7812 3.9888 1.1966 8.763 3.8072 11.156 8.5938 2.3933 4.7866 3.8069 9.5663 1.8125 13.156-1.9944 3.59-2.3989 4.3704-2 4.9688 0.39889 0.59832 1.8034 1.0211 3-0.375s5.1875-4.1941 5.1875-8.7812c0-4.5872-1.3981-10.792-5.1875-14.781-3.7894-3.9888-9.1822-6.9596-13.969-8.1562-3.5899-0.89749-9.5062-2.0646-14.281-1.9688zm148.63 0c-4.7751-0.0958-10.691 1.0713-14.281 1.9688-4.7866 1.1966-10.179 4.1674-13.969 8.1562-3.7894 3.9888-5.1875 10.194-5.1875 14.781 0 4.5872 3.9908 7.3852 5.1875 8.7812 1.1966 1.3961 2.6011 0.97332 3 0.375 0.39888-0.59833-0.006-1.3788-2-4.9688-1.9944-3.5899-0.5808-8.3697 1.8125-13.156 2.3933-4.7866 7.1674-7.3971 11.156-8.5938 3.9888-1.1966 15.756-3.1829 17.75-3.7812 1.9944-0.59833 3.6186-2.1324 0.78125-3-1.2094-0.3698-2.6583-0.5306-4.25-0.5625zm-164.28 2.625c-0.18166 0.0197-0.35946 0.068-0.5625 0.125-19.568 5.4929-28.929 14.367-32.719 18.156-2.3933 2.3933-0.22479 5.7415 2.4062 3.5938 9.7726-7.9777 19.927-13.256 30.687-17.344 3.279-1.2456 3.0157-4.3808 0.71875-4.5312-0.16406-0.0108-0.34959-0.0197-0.53125 0zm179.41 0c-2.2969 0.15047-2.5603 3.2857 0.71875 4.5312 10.761 4.0877 20.915 9.3661 30.688 17.344 2.631 2.1478 4.7995-1.2004 2.4062-3.5938-3.7894-3.7894-13.151-12.663-32.719-18.156-0.40608-0.114-0.76562-0.1465-1.0938-0.125zm-155.34 17c-1.1966 0-2.5028 0.29599-3.5 1.0938-1.9944 1.5955-5.1811 5.375-7.375 5.375-2.1938 0-3.7942 1.4045-6.1875 3s-5.591 4.7658-4.5938 8.1562c0.99721 3.3905 0.40346 5.7942-0.59375 8.1875s-2.1921 6.5782-1.5938 9.9688c0.59832 3.3905 3.9817 6.3806 6.375 8.375s5.796 0.61585 6.5938 1.8125c0.79777 1.1966 3.0038 3.3834 6.5938 6.375 3.5899 2.9916 5.9726 3.1847 9.5625 2.1875 3.5899-0.99721 4.1812-1.7812 6.375-1.7812s2.4073 1.7795 5 3.375 8.968 2.3887 13.156 0.59375c4.1883-1.795 7.5681-5.9624 9.5625-8.1562 1.9944-2.1939 1.8115-5.3971-0.78125-6.5938-2.5927-1.1966-4.0066-2.0038-8.5938-5.5938-2.6864-2.1024-2.9715-2.1959-3.9688-5.1875-0.9972-2.9916-3.3999-5.3796-5.5938-4.7812-2.1939 0.59833-7.9891 1.4062-10.781 1.4062-2.7922 0-6.5727-1.6095-7.9688-5s-0.19665-9.5681 1-11.562c1.1966-1.9944 4.1994-3.9936 4-6.1875-0.19944-2.1939-2.6158-3.5772-3.8125-4.375-0.59832-0.39889-1.6784-0.6875-2.875-0.6875zm131.81 0c-1.1966 0-2.2767 0.28861-2.875 0.6875-1.1966 0.79776-3.6131 2.1811-3.8125 4.375-0.19944 2.1938 2.8034 4.1931 4 6.1875s2.3961 8.172 1 11.562c-1.3961 3.3905-5.1766 5-7.9688 5s-8.5874-0.80792-10.781-1.4062c-2.1938-0.59832-4.5966 1.7896-5.5938 4.7812-0.99721 2.9916-1.2823 3.0851-3.9688 5.1875-4.5872 3.5899-6.001 4.3971-8.5938 5.5938-2.5927 1.1966-2.7757 4.3999-0.78125 6.5938 1.9944 2.1938 5.3742 6.3613 9.5625 8.1562 4.1883 1.795 10.564 1.0018 13.156-0.59375 2.5927-1.5955 2.8062-3.375 5-3.375s2.7851 0.78404 6.375 1.7812c3.59 0.9972 5.9726 0.80412 9.5625-2.1875 3.59-2.9916 5.796-5.1784 6.5938-6.375 0.79776-1.1966 4.2004 0.18191 6.5938-1.8125 2.3933-1.9944 5.7767-4.9845 6.375-8.375 0.59833-3.3905-0.59654-7.5754-1.5938-9.9688-0.99721-2.3933-1.591-4.797-0.59375-8.1875 0.9972-3.3905-2.2005-6.5607-4.5938-8.1562s-3.9936-3-6.1875-3-5.3806-3.7795-7.375-5.375c-0.99721-0.79776-2.3034-1.0938-3.5-1.0938zm-65.92 10.065c-1.9276 0-3.5 1.5724-3.5 3.5s1.5724 3.4688 3.5 3.4688 3.5-1.5412 3.5-3.4688-1.5724-3.5-3.5-3.5zm-162.5 3.2188c-0.56648-0.006-1.1015 0.42818-1.625 1.5625-1.1966 2.5927-9.5958 13.96-14.781 28.719-5.1855 14.759-5.7693 33.324-5.9688 37.312-0.19944 3.9888 0.59654 3.9688 1.5938 3.9688 0.99721 0 2.3971-0.40524 3.5938 2.1875 1.1966 2.5927 2.9817 7.2032 5.375 10.594 2.3933 3.3905 4.1875-1.1941 4.1875-5.7812 0 0 1.9909-14.983 3.1875-19.969s4.2032-15.152 7.5938-22.531c3.3905-7.3793 7.376-8.1646 9.9688-11.156 2.5927-2.9916 8.5782-3.1875 11.969-3.1875 3.3905 0 6.5727 4.5635 7.9688 7.1562s-0.0018 8.592 1.5938 10.188c1.5955 1.5955 3.6067 1.1966 6 0s6.3824-8.388 6.7812-10.781c0.39889-2.3933 1.388-2.5938 3.7812-2.5938 2.3933 0 2.1994-3.1931 2-5.1875-0.19944-1.9944-3.2096-3.9743-4.4062-5.9688-1.1966-1.9944-3.388-2.3971-5.7812-3.5938-2.3933-1.1966-2.5938-2.5772-2.5938-3.375 0-0.79777 0.80869-4.4062-2.7812-4.4062s-6.7924-0.19944-10.781 0c-3.9888 0.19944-14.736 4.7795-16.531 6.375s-2.6159 1.0137-3.8125-0.78125-3.1784-5.205-4.375-7c-0.67311-1.0097-1.4279-1.7421-2.1562-1.75zm325 0c-0.72833 0.008-1.4831 0.74033-2.1562 1.75-1.1966 1.795-3.1784 5.205-4.375 7s-2.0175 2.3768-3.8125 0.78125c-1.795-1.5955-12.542-6.1756-16.531-6.375-3.9888-0.19944-7.1913 0-10.781 0-3.5899 0-2.7812 3.6085-2.7812 4.4062 0 0.79776-0.20045 2.1784-2.5938 3.375-2.3933 1.1966-4.5846 1.5993-5.7812 3.5938-1.1966 1.9944-4.2068 3.9743-4.4062 5.9688-0.19944 1.9944-0.39329 5.1875 2 5.1875s3.3824 0.20046 3.7812 2.5938c0.39888 2.3933 4.388 9.5846 6.7812 10.781 2.3933 1.1966 4.4045 1.5955 6 0 1.5958-1.5955 0.19766-7.5948 1.5938-10.188 1.3961-2.5927 4.5782-7.1562 7.9688-7.1562 3.3905 0 9.376 0.19588 11.969 3.1875 2.5927 2.9916 6.5782 3.7769 9.9688 11.156 3.3905 7.3793 6.3971 17.545 7.5938 22.531 1.1966 4.986 3.1875 19.969 3.1875 19.969 0 4.5872 1.7942 9.1718 4.1875 5.7812 2.3933-3.3905 4.1784-8.001 5.375-10.594 1.1966-2.5927 2.5965-2.1875 3.5938-2.1875 0.99721 0 1.7932 0.0201 1.5938-3.9688-0.19944-3.9888-0.78328-22.554-5.9688-37.312-5.1855-14.759-13.585-26.126-14.781-28.719-0.52353-1.1343-1.0585-1.5685-1.625-1.5625zm-162.5 18.125c-3.9654 0-7.1875 3.1522-7.1875 7.0625s3.2222 7.0938 7.1875 7.0938 7.1875-3.1835 7.1875-7.0938-3.2222-7.0625-7.1875-7.0625zm-146.19 13.5c-0.86198-0.022-1.8171 0.19548-2.4062 0.65625-7.5009 5.8668-8.2049 15.077-10.75 23.531-1.1456 3.8051 2.5727 3.7985 3.9688-1.1875 2.2752-7.6038 6.8267-14.1 10.969-20.75 0.87256-1.4958-0.34462-2.2134-1.7812-2.25zm292.38 0c-1.4366 0.0366-2.6538 0.75419-1.7812 2.25 4.1421 6.6503 8.6936 13.146 10.969 20.75 1.3961 4.986 5.1143 4.9926 3.9688 1.1875-2.5451-8.4538-3.2491-17.664-10.75-23.531-0.58911-0.46077-1.5443-0.67825-2.4062-0.65625zm-287.5 14.812c-2.258 0-4.0625 1.8357-4.0625 4.0938 0 2.258 1.8045 4.0938 4.0625 4.0938s4.0938-1.8357 4.0938-4.0938c0-2.258-1.8357-4.0938-4.0938-4.0938zm282.63 0c-2.258 0-4.0938 1.8357-4.0938 4.0938 0 2.258 1.8357 4.0938 4.0938 4.0938 2.258 0 4.0625-1.8357 4.0625-4.0938 0-2.258-1.8045-4.0938-4.0625-4.0938zm-141.31 1.4375c-1.7037 0.0973-4.0055 3.6549-5.6563 6.6562-1.6508 3.0014-7.4996 12.63-8.25 15.031-0.75035 2.4011-1.0745 2.0938-2.125 2.0938h-3.2812c-1.3506 0-1.6686-0.60133-1.9688 2.25-0.30014 2.8513 1.6683 12.885 2.7188 17.688 1.0505 4.8022 6.1308 16.224 7.0312 17.875 0.90042 1.6508 0.62535 4.7991-0.125 6.75s-4.6683 10.793-5.7188 12.594c-1.0505 1.8008-1.0319 2.5614 0.46875 4.8125 1.5007 2.251 6.149 8.8551 8.25 11.406 2.101 2.5512 4.2057 12.449 5.4062 14.25 1.2006 1.8008 3.25 2.5625 3.25 2.5625s2.0494-0.76166 3.25-2.5625 3.3053-11.699 5.4062-14.25c2.101-2.5512 6.7493-9.1552 8.25-11.406 1.5007-2.251 1.5192-3.0117 0.46875-4.8125-1.0505-1.8008-4.9684-10.643-5.7188-12.594-0.75035-1.9509-1.0254-5.0992-0.125-6.75 0.90042-1.6508 5.9808-13.073 7.0312-17.875 1.0505-4.8022 3.0189-14.836 2.7188-17.688-0.30014-2.8513-0.61812-2.25-1.9688-2.25h-3.2812c-1.0505 0-1.3746 0.30737-2.125-2.0938-0.75035-2.4011-6.5992-12.03-8.25-15.031-1.6508-3.0014-3.9525-6.559-5.6562-6.6562zm-79.781 0.0625c-6.542 0.0556-12.756 4.8007-15.344 3.2812-6.059-3.5571-12.936-2.542-16.969 1.8125-2.206 2.3821-2.747 2.8229 0.59375 4.7812 2.4635 1.4441 4.7868 1.1811 6.7813 3.375 1.9944 2.1938 4.6085 4.9891 5.4062 7.7812 0.79776 2.7922 1.7914 3.6039 3.1875 5s4.9688 3.9863 4.9688 5.7812c0 1.795-0.17657 8.7675-2.9688 10.562-2.7922 1.795-4.1893 3.9863-2.5938 5.7812 1.5955 1.795 4.9817 3.7812 7.375 3.7812s5.255-1.4627 6.7812-1.9688c3.0783-1.0207 8.521 0.52309 12.375-2.5938 2.4223-1.959 5.7693-6.2004 5.9688-8.5938 0.19945-2.3933 1.1857-1.7721 2.7812-2.9688 1.5955-1.1966 3.9881-4.1913 4.1875-7.7812 0.19944-3.5899 0.80412-6.4027-2.1875-9.5938s-4.7749-4.1903-6.9688-5.1875c-2.1938-0.99721-0.99086-1.376-2.1875-3.9688-1.1966-2.5927-4.0591-7.9772-8.375-8.9688-0.93881-0.21568-1.8779-0.32044-2.8125-0.3125zm159.56 0c-0.93457-0.008-1.8737 0.0968-2.8125 0.3125-4.3159 0.99152-7.1784 6.376-8.375 8.9688-1.1966 2.5927 0.006 2.9715-2.1875 3.9688-2.1938 0.9972-3.9771 1.9964-6.9688 5.1875-2.9916 3.1911-2.3869 6.0038-2.1875 9.5938 0.19944 3.59 2.592 6.5846 4.1875 7.7812s2.5818 0.57546 2.7812 2.9688c0.19944 2.3933 3.5464 6.6347 5.9688 8.5938 3.854 3.1168 9.2967 1.5731 12.375 2.5938 1.5262 0.50605 4.388 1.9688 6.7812 1.9688 2.3933 0 5.7795-1.9863 7.375-3.7812 1.5955-1.795 0.19843-3.9863-2.5938-5.7812-2.7922-1.795-2.9688-8.7675-2.9688-10.562 0-1.795 3.5727-4.3852 4.9688-5.7812 1.3961-1.3961 2.3897-2.2078 3.1875-5 0.79777-2.7922 3.4118-5.5874 5.4062-7.7812 1.9944-2.1939 4.3178-1.9309 6.7812-3.375 3.3408-1.9584 2.7998-2.3992 0.59375-4.7812-4.0327-4.3545-10.91-5.3696-16.969-1.8125-2.5882 1.5195-8.8017-3.2256-15.344-3.2812zm-197.85 15.65c-1.6261 0.18884-3.1391 2.2521-8.1875 8.5625-7.1799 8.9749-8.159 21.952-9.1562 29.531-0.99721 7.5788-0.59832 23.718 0 27.906 0.59833 4.1883 2.1959 6.1994 5.1875 6 2.9916-0.19944 5.3732-1.6095 6.9688-5 1.5955-3.3905-0.19207-9.9543 0.40625-15.938 0.59833-5.9832 1.9863-15.551 3.7812-22.531 1.795-6.9804 6.5948-10.381 9.1875-12.375 2.5927-1.9944 4.1801-2.1987 3.7812-6.1875-0.39888-3.9888-5.9415-7.9141-9.5937-9.375-0.85362-0.34145-1.4724-0.57647-2.0625-0.59375-0.11064-0.003-0.20409-0.0126-0.3125 0zm235.81 0c-0.5901 0.0173-1.2089 0.2523-2.0625 0.59375-3.6522 1.4609-9.1949 5.3862-9.5938 9.375-0.39888 3.9888 1.1885 4.1931 3.7812 6.1875s7.3925 5.3946 9.1875 12.375 3.1829 16.548 3.7812 22.531c0.59832 5.9832-1.1893 12.547 0.40625 15.938 1.5955 3.3905 3.9771 4.8006 6.9688 5 2.9916 0.19944 4.5892-1.8117 5.1875-6 0.59832-4.1883 0.99721-20.327 0-27.906-0.99721-7.5788-1.9764-20.556-9.1562-29.531-5.3849-6.7311-6.7297-8.6143-8.5-8.5625zm-277.69 3.7812c-1.8388 0-2.2142 1.9936-2.8125 4.1875-0.59832 2.1938-0.57622 3.9908 1.2188 5.1875 1.795 1.1966 5.1573 2.6011 7.75 3 2.5927 0.39888 8.7749 0.38694 10.969 0.1875 2.1939-0.19944 3.8153 0.61941 4.8125-1.375 0.99721-1.9944 1.1949-3.4118 1.5938-5.4062 0.39889-1.9944-0.79878-2.7812-2.5938-2.7812s-9.5828-0.80056-12.375-1-5.5247-2-8.5625-2zm319.88 0c-3.0378 0-5.7703 1.8006-8.5625 2-2.7922 0.19944-10.58 1-12.375 1s-2.9926 0.78683-2.5938 2.7812c0.39888 1.9944 0.59654 3.4118 1.5938 5.4062 0.9972 1.9944 2.6186 1.1756 4.8125 1.375 2.1938 0.19944 8.376 0.21138 10.969-0.1875 2.5927-0.39888 5.955-1.8034 7.75-3s1.8171-2.9936 1.2188-5.1875c-0.59833-2.1939-0.97374-4.1875-2.8125-4.1875zm-343.19 16.22c-0.60183 0.0456-1.2454 0.30126-1.8438 0.75-1.5955 1.1966-4.5681 0.59375-6.5625 0.59375s-6.1811-0.80234-8.375 0.59375-7.3732 4.1738-8.9687 5.9688-0.59553 3.6131 1 3.8125c1.5955 0.19944 2.581-0.19843 6.9688 2.5938 4.3877 2.7922 5.3742 4.1776 9.5625 9.5625s7.7896 16.955 10.781 25.531c2.9916 8.576 7.3806 22.736 9.375 28.719 1.9944 5.9832 9.7703 16.763 12.562 19.156 2.7922 2.3933 3.092 0.0164 1.5938-3.8125-2.1126-5.3989-4.3841-22.733-3.1875-27.719s8.3641-8.7647 11.156-9.5625c2.7922-0.79777 2.3989-4.9891 2-7.7812-0.39888-2.7922-3.1766-4.9743-5.9688-6.9688-2.7922-1.9944-3.8034-0.0175-5-1.8125s0.40447-4.9936 2-7.1875c1.5955-2.1938 0.99721-4.171 0-4.9688-0.99721-0.79776-2.9926-2.5874-2.5938-4.7812 0.39888-2.1938 0.19207-6.9919-0.40625-10.781-0.59832-3.7894-3.1857-4.3842-4.7812-3.1875-1.5955 1.1966-6.7749 1.4017-8.9688 2-2.1939 0.59833-2.2096 0.99441-3.4062-1s-3.3778-6.3925-4.375-8.1875c-0.62325-1.1219-1.5595-1.6072-2.5625-1.5312zm366.13 0c-0.85968 0.0574-1.6422 0.54962-2.1875 1.5312-0.99721 1.795-3.1784 6.1931-4.375 8.1875s-1.2124 1.5983-3.4062 1c-2.1939-0.59832-7.3732-0.80335-8.9688-2-1.5955-1.1966-4.1829-0.60188-4.7812 3.1875-0.59833 3.7894-0.80513 8.5874-0.40625 10.781 0.39888 2.1939-1.5966 3.9835-2.5938 4.7812-0.99721 0.79777-1.5955 2.7749 0 4.9688s3.1966 5.3925 2 7.1875-2.2078-0.18191-5 1.8125-5.5699 4.1766-5.9688 6.9688c-0.39888 2.7922-0.79218 6.9835 2 7.7812 2.7922 0.79776 9.9596 4.5765 11.156 9.5625 1.1966 4.986-1.0749 22.32-3.1875 27.719-1.4983 3.8289-1.1984 6.2058 1.5938 3.8125s10.568-13.173 12.562-19.156c1.9944-5.9832 6.3834-20.143 9.375-28.719s6.593-20.146 10.781-25.531c4.1883-5.3849 5.1748-6.7703 9.5625-9.5625s5.3732-2.3943 6.9688-2.5938c1.5955-0.19944 2.5955-2.0175 1-3.8125s-6.7749-4.5727-8.9688-5.9688-6.3806-0.59375-8.375-0.59375-4.967 0.6029-6.5625-0.59375c-0.59833-0.44874-1.2419-0.7044-1.8438-0.75-0.12538-0.01-0.25219-0.008-0.375 0zm-329.47 4.125c-2.3131 0-4.1875 1.9131-4.1875 4.2812 0 2.3682 1.8744 4.3125 4.1875 4.3125s4.1875-1.9443 4.1875-4.3125-1.8744-4.2812-4.1875-4.2812zm110.72 0c-0.61016 0-1.1446 0.39523-1.7812 1.5625-1.2734 2.3345-2.125 4.0209-2.125 5.7188 0 1.6978-0.20841 3.194-1.9062 3.4062-1.6978 0.21223-6.5717 2.1081-8.9062 3.5938-2.3345 1.4856-5.3125 4.875-5.3125 4.875-4.2446 4.6691-6.1641 10.21-7.4375 12.969s-1.0533 5.2929 1.2812 4.6562c2.3345-0.63669 8.9168-4.4427 12.312-3.5938 3.3957 0.84892 4.8635-0.87231 10.594 1.25 5.7302 2.1223 8.7019 2.5638 10.188 3.625 1.4856 1.0612 2.1264 0.82937 3.1875-0.65625 1.0612-1.4856 4.8946-12.077 5.5312-13.562 0.6367-1.4856 0.84893-2.7774 0-4.6875-0.84892-1.9101-3.1785-5.7059-5.9375-10.375s-5.5274-7.4258-7.4375-8.0625c-0.95504-0.31834-1.6398-0.71875-2.25-0.71875zm71.75 0c-0.61016 0-1.295 0.40041-2.25 0.71875-1.9101 0.63669-4.6785 3.3934-7.4375 8.0625s-5.0886 8.4649-5.9375 10.375c-0.84893 1.9101-0.6367 3.2019 0 4.6875 0.63669 1.4856 4.4701 12.077 5.5312 13.562 1.0612 1.4856 1.7019 1.7174 3.1875 0.65625s4.4573-1.5027 10.188-3.625c5.7302-2.1223 7.1981-0.40108 10.594-1.25 3.3957-0.84893 9.978 2.9571 12.312 3.5938 2.3345 0.63669 2.5546-1.8972 1.2812-4.6562s-3.1929-8.2997-7.4375-12.969c0 0-2.978-3.3894-5.3125-4.875s-7.2084-3.3815-8.9062-3.5938c-1.6978-0.21223-1.9062-1.7084-1.9062-3.4062s-0.85162-3.3842-2.125-5.7188c-0.6367-1.1673-1.1711-1.5625-1.7812-1.5625zm110.72 0c-2.3131 0-4.1875 1.9131-4.1875 4.2812 0 2.3682 1.8744 4.3125 4.1875 4.3125s4.1875-1.9443 4.1875-4.3125-1.8744-4.2812-4.1875-4.2812zm-293.29 21.35c-1.3878 0-2.5 1.1122-2.5 2.5v3.7812c0 1.3878 1.1122 2.5 2.5 2.5h2.375c1.3878 0 2.5-1.1122 2.5-2.5v-3.7812c0-1.3878-1.1122-2.5-2.5-2.5h-2.375zm291 0c-1.3878 0-2.5 1.1122-2.5 2.5v3.7812c0 1.3878 1.1122 2.5 2.5 2.5h2.375c1.3878 0 2.5-1.1122 2.5-2.5v-3.7812c0-1.3878-1.1122-2.5-2.5-2.5h-2.375zm-253.22 10.438c-0.69921 0.0136-1.4396 0.53404-2.1875 1.5312-1.1966 1.5955-4.3658 6.1913-5.5625 9.7812-1.1966 3.5899-2.6204 8.9624-3.2188 11.156-0.59832 2.1939 0.0064 2.3824-2.1875 2.7812-2.1939 0.39888-3.5846 0.20681-4.7812 0.40625-1.1966 0.19945-2.6029 1.5874-1.4062 3.7812 1.1966 2.1938 6.1862 16.76 21.344 29.125s30.913 17.774 42.281 17.375c11.368-0.39888 16.75-5 16.75-5 1.5955-1.5955 2.4098-4.0046-0.78125-3.4062-3.1911 0.59832-3.8064 2.0046-12.781 1.4062-8.9749-0.59833-20.535-1.5996-30.906-10.375s-12.555-17.553-12.156-22.938c0.39888-5.3849 2.0048-9.75 8.1875-9.75s4.7675 1.375 6.5625 1.375 1.5846-1.3778 2.7812-2.375c1.1966-0.99721 5.7978-7.7833 5-12.969-0.79777-5.1855-3.9992-8.3852-8.1875-9.7812-4.1883-1.3961-6.376-1.3961-8.9688 0-2.5927 1.3961-2.9982 2.5836-4.5938 1.1875-1.5955-1.3961-2.9715-1.784-3.9688-2.7812-0.37395-0.37395-0.79922-0.53943-1.2188-0.53125zm217.81 0c-0.41953-0.008-0.8448 0.1573-1.2188 0.53125-0.99721 0.99721-2.3732 1.3852-3.9688 2.7812-1.5955 1.3961-2.001 0.20859-4.5938-1.1875-2.5927-1.3961-4.7805-1.3961-8.9688 0s-7.3897 4.5958-8.1875 9.7812c-0.79776 5.1855 3.8034 11.972 5 12.969 1.1966 0.99721 0.98628 2.375 2.7812 2.375 1.795 0 0.37982-1.375 6.5625-1.375s7.7886 4.3651 8.1875 9.75c0.39888 5.3849-1.7853 14.162-12.156 22.938-10.371 8.7754-21.931 9.7767-30.906 10.375-8.9749 0.59832-9.5902-0.80793-12.781-1.4062-3.1911-0.59833-2.3768 1.8107-0.78125 3.4062 0 0 5.3818 4.6011 16.75 5 11.368 0.39888 27.124-5.0096 42.281-17.375 15.158-12.365 20.147-26.931 21.344-29.125 1.1966-2.1939-0.2096-3.5818-1.4062-3.7812-1.1966-0.19944-2.5874-0.007-4.7812-0.40625-2.1935-0.39888-1.5892-0.58739-2.1875-2.7812-0.59833-2.1938-2.0221-7.5663-3.2188-11.156-1.1966-3.5899-4.3658-8.1857-5.5625-9.7812-0.74791-0.99721-1.4883-1.5176-2.1875-1.5312zm-161.69 15.25c-1.2658 0.0732-2.8146 0.54803-5.25 1.4375-11.018 4.0241-21.532 15.139-19.938 28.719 1.0413 8.8675 8.6701 16.622 18.531 13.969 8.105-2.1809 11.532-11.932 8.5938-19.75-1.0687-2.8436 0.79888-2.575 2.5938-2.5938 5.3881-0.0564 3.4736-8.5353 2.7812-12.375-0.59833-3.9888-1.2272-6.8081-3.7812-8.375-1.277-0.78343-2.2655-1.1045-3.5312-1.0312zm105.56 0c-1.2658-0.0732-2.2542 0.24782-3.5312 1.0312-2.5541 1.5669-3.1829 4.3862-3.7812 8.375-0.69236 3.8397-2.6068 12.319 2.7812 12.375 1.7949 0.0188 3.6625-0.24984 2.5938 2.5938-2.9385 7.8185 0.48875 17.569 8.5938 19.75 9.8612 2.6535 17.49-5.1012 18.531-13.969 1.5947-13.58-8.9194-24.695-19.938-28.719-2.4354-0.88947-3.9842-1.3643-5.25-1.4375zm-90.5 2.0312c-1.1767 0.0677-1.1562 1.5416-1.1562 3 0 1.795 0.59375 13.162 0.59375 15.156 0 1.9944 0.60391 2.5846 2 3.7812s7.7647 5.9865 8.5625 14.562c0.79777 8.576-0.79699 15.175-4.1875 19.562-3.3905 4.3877-9.764 10.544-14.75 12.938-4.986 2.3933-10.395 4.2142-13.188 4.8125-2.7922 0.59832-2.9926 2.9936-2.5938 5.1875 0.39888 2.1939 1 6.1562 1 6.1562 0.99721 3.3905 1.6067 4.3869 4 4.1875 2.3933-0.19944 17.748-4.9662 26.125-10.75 8.3765-5.7838 16.145-16.169 18.938-25.344 2.7922-9.1743 3.4144-21.339-0.375-28.719-3.7894-7.3793-7.4009-13.949-12.188-17.938-4.7866-3.9888-9.5561-5.5772-11.75-6.375-0.41135-0.14958-0.7597-0.23438-1.0312-0.21875zm75.438 0c-0.27155-0.0156-0.6199 0.0692-1.0312 0.21875-2.1939 0.79777-6.9634 2.3862-11.75 6.375s-8.3981 10.558-12.188 17.938c-3.7894 7.3793-3.1672 19.544-0.375 28.719 2.7922 9.1743 10.561 19.56 18.938 25.344 8.3765 5.7838 23.732 10.551 26.125 10.75 2.3933 0.19944 3.0028-0.79699 4-4.1875 0 0 0.60112-3.9624 1-6.1562 0.39889-2.1938 0.19843-4.5892-2.5938-5.1875-2.7922-0.59832-8.2015-2.4192-13.188-4.8125-4.986-2.3933-11.36-8.5498-14.75-12.938-3.3905-4.3877-4.9853-10.987-4.1875-19.562 0.79776-8.576 7.1664-13.366 8.5625-14.562 1.3961-1.1966 2-1.7868 2-3.7812s0.59375-13.361 0.59375-15.156c0-1.4584 0.0205-2.9323-1.1562-3zm-175.47 9.4062c-0.62326 0.0748-1.3718 0.47015-2.4688 0.96875 0 0-1.7749 0.79598-3.9688 1.5938-2.1939 0.79776-3.3971 0.59375-4.5938 0.59375-1.1966 0-2.5983 1.4045-2 3 0.59832 1.5955 2.4017 3.3852 3 4.7812 0.59832 1.3961 1.9909 0.79777 3.1875 0 1.1966-0.79776 7.967-2.796 9.5625-3.5938 1.5955-0.79777 2.3915-1.7721 1.5938-2.9688-0.79776-1.1966-1.3971-1.8107-2.5938-3.4062-0.59833-0.79777-1.0955-1.0435-1.7188-0.96875zm275.06 0c-0.43081 0.075-0.8325 0.37042-1.2812 0.96875-1.1966 1.5955-1.796 2.2096-2.5938 3.4062-0.79777 1.1966-0.002 2.171 1.5938 2.9688 1.5955 0.79776 8.3658 2.796 9.5625 3.5938 1.1966 0.79777 2.5892 1.3961 3.1875 0 0.59832-1.3961 2.4017-3.1857 3-4.7812 0.59832-1.5955-0.80335-3-2-3s-2.3999 0.20401-4.5938-0.59375c-2.1939-0.79777-3.9688-1.5938-3.9688-1.5938-1.0969-0.4986-1.8455-0.89395-2.4688-0.96875-0.15582-0.0187-0.2939-0.025-0.4375 0zm-271.61 13.34c-1.8174 0-3.3125 1.4638-3.3125 3.2812s1.495 3.2812 3.3125 3.2812c1.8174 0 3.2812-1.4638 3.2812-3.2812s-1.4638-3.2812-3.2812-3.2812zm268.63 0c-1.8174 0-3.2812 1.4638-3.2812 3.2812s1.4638 3.2812 3.2812 3.2812 3.3125-1.4638 3.3125-3.2812-1.495-3.2812-3.3125-3.2812zm-319.66 3.8438c-1.2714 0.0561-1.5267 1.185-2.125 2.5312-0.79777 1.795 1.0081 2.1994-2.7812 2-3.7894-0.19944-5.6113 0.77668-7.4062 1.375-1.795 0.59832-2.375 1.4062-2.375 1.4062-1.1966 1.1966-1.3961 2.3971 0 3.5938 1.3961 1.1966 1.9926 2.1812 1.5938 4.375-0.39888 2.1939-0.79497 5.3852 1 6.7812 1.795 1.3961 2.7942 4.4062 5.1875 4.4062s3.376-2.8107 5.9688-4.4062c2.5927-1.5955 4.4055-4.3842 8.5938-3.1875 4.1883 1.1966 10.164 2.796 10.562 3.5938 0.39888 0.79776 4.795 1.6166 3-1.375s-6.7924-10.179-10.781-13.969c-3.9888-3.7894-5.9891-5.784-8.7812-6.7812-0.69804-0.2493-1.2324-0.36245-1.6562-0.34375zm370.69 0c-0.42381-0.0187-0.95821 0.0944-1.6562 0.34375-2.7922 0.99721-4.7924 2.9919-8.7812 6.7812-3.9888 3.7894-8.9863 10.977-10.781 13.969-1.795 2.9916 2.6011 2.1728 3 1.375 0.39888-0.79777 6.3742-2.3971 10.562-3.5938 4.1883-1.1966 6.001 1.592 8.5938 3.1875 2.5927 1.5955 3.5754 4.4062 5.9688 4.4062 2.3933 0 3.3925-3.0102 5.1875-4.4062 1.795-1.3961 1.3989-4.5874 1-6.7812-0.39888-2.1938 0.19766-3.1784 1.5938-4.375s1.1966-2.3971 0-3.5938c0 0-0.58003-0.80793-2.375-1.4062-1.795-0.59832-3.6169-1.5744-7.4062-1.375-3.7894 0.19944-1.9835-0.20503-2.7812-2-0.59833-1.3462-0.85356-2.4752-2.125-2.5312zm-309.69 6.53c-0.66101 0.0551-1.3167 0.30169-1.875 0.75l-4.9688 4c-1.4889 1.1955-1.7267 3.3549-0.53125 4.8438l0.8125 1c1.1955 1.4889 3.3549 1.7267 4.8438 0.53125l4.9688-4c1.4889-1.1955 1.7267-3.3549 0.53125-4.8438l-0.8125-1c-0.74718-0.93054-1.8671-1.3731-2.9688-1.2812zm248.69 0c-1.1017-0.0918-2.2216 0.35071-2.9688 1.2812l-0.8125 1c-1.1955 1.4889-0.95762 3.6483 0.53125 4.8438l4.9688 4c1.4889 1.1955 3.6483 0.95762 4.8438-0.53125l0.8125-1c1.1955-1.4889 0.95762-3.6483-0.53125-4.8438l-4.9688-4c-0.55833-0.44831-1.214-0.6949-1.875-0.75zm-270.59 0.0937c-0.08478-0.007-0.17309 0.0131-0.25 0.0312-0.47854 0.11282-0.78774 0.69644-0.875 1.6562-0.19944 2.1938 1.5993 5.1758 3.5938 12.156 1.9944 6.9804 12.763 21.551 21.938 28.531 9.1743 6.9804 21.939 10.777 24.531 11.375 2.5927 0.59832 4.5625 0.9817 4.5625 3.375s-0.59375 5.3918-0.59375 11.375 7.1839 7.5744 10.375 7.375c3.1911-0.19944 6.5938-2.7815 6.5938-9.5625 0 0 0.375-2.7924 0.375-6.7812s3.8061-2.2096 6-3.4062c2.1938-1.1966 1.1921-3.1794 0.59375-6.9688-0.59832-3.7894-0.40548-8.1847-4.5938-7.1875-4.1883 0.99721-21.516-3.1885-31.688-5.7812-10.171-2.5927-17.565-9.7685-22.75-14.156-5.1855-4.3877-13.768-17.145-15.562-19.938-0.88346-1.3743-1.6565-2.0475-2.25-2.0938zm292.5 0c-0.59348 0.0462-1.3665 0.71947-2.25 2.0938-1.795 2.7922-10.377 15.55-15.562 19.938-5.1855 4.3877-12.578 11.564-22.75 14.156-10.172 2.5927-27.499 6.7785-31.688 5.7812-4.1883-0.99721-3.9954 3.3981-4.5938 7.1875-0.59832 3.7894-1.6001 5.7721 0.59375 6.9688 2.1939 1.1966 6-0.58257 6 3.4062s0.375 6.7812 0.375 6.7812c0 6.781 3.4027 9.3631 6.5938 9.5625 3.1911 0.19944 10.375-1.3918 10.375-7.375s-0.59375-8.9817-0.59375-11.375 1.9698-2.7767 4.5625-3.375c2.5927-0.59833 15.357-4.3946 24.531-11.375 9.1743-6.9804 19.943-21.551 21.938-28.531 1.9944-6.9804 3.7932-9.9624 3.5938-12.156-0.0873-0.95981-0.39646-1.5434-0.875-1.6562-0.0769-0.0181-0.16522-0.0378-0.25-0.0312zm-146.25 4c-1.5333 0-2.7813 1.248-2.7813 2.7812 0 1.5333 1.248 2.7812 2.7813 2.7812s2.7812-1.248 2.7812-2.7812c0-1.5333-1.248-2.7812-2.7812-2.7812zm-115.38 8.4688c-1.5972 0-2.9062 1.2778-2.9062 2.875s1.3091 2.9062 2.9062 2.9062c1.5972 0 2.9062-1.3091 2.9062-2.9062 0-1.5972-1.3091-2.875-2.9062-2.875zm230.75 0c-1.5972 0-2.9062 1.2778-2.9062 2.875s1.3091 2.9062 2.9062 2.9062c1.5972 0 2.9062-1.3091 2.9062-2.9062 0-1.5972-1.3091-2.875-2.9062-2.875zm-220.03 6c-0.63734 0.0621-1.2467 0.3703-1.6875 0.90625l-3.375 4.125c-0.88155 1.0719-0.72815 2.6184 0.34375 3.5l1.0625 0.875c1.0719 0.88155 2.6497 0.72815 3.5312-0.34375l3.3438-4.0938c0.88155-1.0719 0.72815-2.6497-0.34375-3.5312l-1.0312-0.875c-0.53595-0.44077-1.2064-0.62461-1.8438-0.5625zm208.84 0c-0.48257 0.0462-0.97304 0.23192-1.375 0.5625l-1.0312 0.875c-1.0719 0.88155-1.2253 2.4594-0.34375 3.5312l3.3438 4.0938c0.88155 1.0719 2.4594 1.2253 3.5312 0.34375l1.0625-0.875c1.0719-0.88155 1.2253-2.4281 0.34375-3.5l-3.375-4.125c-0.44077-0.53595-1.0502-0.84415-1.6875-0.90625-0.15933-0.0155-0.30789-0.0154-0.46875 0zm-196.81 6.3438c-1.8174 0-3.3125 1.3864-3.3125 3.0938 0 1.7073 1.495 3.0938 3.3125 3.0938 1.8174 0 3.2812-1.3864 3.2812-3.0938 0-1.7073-1.4638-3.0938-3.2812-3.0938zm185.25 0c-1.8174 0-3.2812 1.3864-3.2812 3.0938 0 1.7073 1.4638 3.0938 3.2812 3.0938s3.3125-1.3864 3.3125-3.0938c0-1.7073-1.495-3.0938-3.3125-3.0938zm-95.844 1.75c-1.4684 0.0562-1.8355 1.1164-2.3438 2.0312-0.75035 1.3506-1.1923 1.9598-4.3438 7.8125s-9.9289 11.248-15.031 15.75c-5.1024 4.5021-25.499 10.212-27 10.812-1.5007 0.60028-1.6504 1.6617-0.75 3.3125 0.90042 1.6508 6.8908 6.1432 13.344 7.3438 6.453 1.2006 17.724 0.59375 19.375 0.59375 1.6508 0 2.4121-1.0385 3.3125 1.0625 0.90042 2.101 8.83 24.454 11.531 28.656 2.7012 4.202 5.125 3.75 5.125 3.75s2.4238 0.45196 5.125-3.75c2.7013-4.202 10.631-26.555 11.531-28.656 0.90042-2.101 1.6617-1.0625 3.3125-1.0625s12.922 0.60681 19.375-0.59375 12.443-5.693 13.344-7.3438c0.90042-1.6508 0.7507-2.7122-0.75-3.3125-1.5007-0.60028-21.898-6.3104-27-10.812-5.1024-4.5021-11.88-9.8973-15.031-15.75-3.1515-5.8527-3.5934-6.4619-4.3438-7.8125-0.50826-0.91487-0.87535-1.975-2.3438-2.0312-0.74266-0.0284-1.7144 0-3.2188 0s-2.4761-0.0284-3.2188 0z"/>
    </g>
  </g>
  <metadata>
    <rdf:RDF>
      <cc:Work>
        <dc:format>image/svg+xml</dc:format>
        <dc:type rdf:resource="http://purl.org/dc/dcmitype/StillImage"/>
        <cc:license rdf:resource="http://creativecommons.org/licenses/publicdomain/"/>
        <dc:publisher>
          <cc:Agent rdf:about="http://openclipart.org/">
            <dc:title>Openclipart</dc:title>
          </cc:Agent>
        </dc:publisher>
        <dc:title>Victorian Background Ornament</dc:title>
        <dc:date>2010-11-17T21:42:14</dc:date>
        <dc:description>Repetitive Victorian ornament. It can be used as a background.</dc:description>
        <dc:source>https://openclipart.org/detail/96355/victorian-background-ornament-by-kuba</dc:source>
        <dc:creator>
          <cc:Agent>
            <dc:title>kuba</dc:title>
          </cc:Agent>
        </dc:creator>
        <dc:subject>
          <rdf:Bag>
            <rdf:li>background</rdf:li>
            <rdf:li>blue</rdf:li>
            <rdf:li>damask</rdf:li>
            <rdf:li>decoration</rdf:li>
            <rdf:li>design</rdf:li>
            <rdf:li>history</rdf:li>
            <rdf:li>horizontal</rdf:li>
            <rdf:li>motif</rdf:li>
            <rdf:li>ornament</rdf:li>
            <rdf:li>pattern</rdf:li>
            <rdf:li>repeat</rdf:li>
            <rdf:li>tiles</rdf:li>
            <rdf:li>vertical</rdf:li>
            <rdf:li>victorian</rdf:li>
            <rdf:li>vintage</rdf:li>
          </rdf:Bag>
        </dc:subject>
      </cc:Work>
      <cc:License rdf:about="http://creativecommons.org/licenses/publicdomain/">
        <cc:permits rdf:resource="http://creativecommons.org/ns#Reproduction"/>
        <cc:permits rdf:resource="http://creativecommons.org/ns#Distribution"/>
        <cc:permits rdf:resource="http://creativecommons.org/ns#DerivativeWorks"/>
      </cc:License>
    </rdf:RDF>
  </metadata>
</svg>
