<?xml version="1.0" encoding="UTF-8" standalone="no"?>
<svg
   version="1.1"
   x="0"
   y="0"
   width="807.30084"
   height="1175.51"
   viewBox="0 0 807.30084 1175.51"
   id="svg21"
   sodipodi:docname="1554295673.svg"
   inkscape:version="1.1.2 (0a00cf5339, 2022-02-04)"
   xmlns:inkscape="http://www.inkscape.org/namespaces/inkscape"
   xmlns:sodipodi="http://sodipodi.sourceforge.net/DTD/sodipodi-0.dtd"
   xmlns="http://www.w3.org/2000/svg"
   xmlns:svg="http://www.w3.org/2000/svg">
  <defs
     id="defs25" />
  <sodipodi:namedview
     id="namedview23"
     pagecolor="#ffffff"
     bordercolor="#666666"
     borderopacity="1.0"
     inkscape:pageshadow="2"
     inkscape:pageopacity="0.0"
     inkscape:pagecheckerboard="0"
     showgrid="false"
     inkscape:zoom="0.56916667"
     inkscape:cx="403.22108"
     inkscape:cy="588.5798"
     inkscape:window-width="1920"
     inkscape:window-height="1016"
     inkscape:window-x="0"
     inkscape:window-y="0"
     inkscape:window-maximized="1"
     inkscape:current-layer="svg21" />
  <g
     id="Layer_1"
     transform="matrix(-1,0,0,1,818.68918,-14.884981)">
    <g
       id="g18">
      <path
         d="m 785.308,939.929 c -19.457,19.725 -39.212,39.162 -58.649,58.908 -7.807,7.932 -14.914,16.551 -22.633,24.579 -2.253,2.343 -5.513,3.72 -8.31,5.544 -0.966,-1.029 -1.925,-2.055 -2.888,-3.084 2.286,-3.066 4.235,-6.459 6.902,-9.147 24.247,-24.453 48.645,-48.747 72.9,-73.191 2.829,-2.844 4.782,-6.564 7.644,-9.366 2.346,-2.295 5.448,-3.816 8.211,-5.682 0.877,0.819 1.752,1.638 2.629,2.457 -1.911,3.018 -3.358,6.498 -5.806,8.982 M 662.755,898.841 c -0.567,-0.804 0.99,-3.108 1.557,-4.716 0.948,-0.39 1.902,-0.783 2.854,-1.176 13.952,22.23 27.941,44.433 41.753,66.75 0.781,1.26 0.102,3.417 -1.026,5.694 -18.476,-19.953 -29.718,-44.7 -45.138,-66.552 m -11.846,-80.91 c -4.378,-10.038 -7.956,-20.436 -11.586,-30.78 -11.508,-32.808 -22.881,-65.661 -34.294,-98.502 -0.935,-2.703 -1.755,-5.445 -3.047,-9.477 10.664,-8.802 20.912,-17.253 32.385,-26.718 4.38,11.601 8.282,21.765 12.057,31.974 2.412,6.516 4.547,13.134 6.969,19.647 1.988,5.355 2.087,8.961 -4.534,11.787 -9.882,4.215 -11.489,20.019 -7.982,29.805 4.149,11.562 12.506,19.539 25.368,21.636 13.646,2.226 16.547,14.268 20.195,24.309 2.677,7.365 -1.61,13.866 -8.99,18.243 -4.369,2.586 -7.539,7.203 -11.208,10.944 -7.242,7.374 -11.049,6.957 -15.333,-2.868 m -85.573,316.236 c -9.216,-0.831 -18.432,-1.698 -27.662,-2.379 -21.46,-1.578 -42.96,-2.667 -64.381,-4.671 -27.444,-2.568 -54.794,-6.129 -82.238,-8.721 -21.069,-1.986 -42.244,-2.853 -63.325,-4.728 -20.96,-1.866 -41.855,-4.488 -62.799,-6.549 -10.695,-1.05 -21.438,-1.635 -32.163,-2.355 -22.944,-1.533 -45.914,-2.715 -68.825,-4.608 -22.435,-1.851 -44.784,-4.698 -67.222,-6.474 -6.911,-0.549 -9.159,-3.12 -8.25,-9.6 1.84,-13.122 3.345,-26.292 5.341,-39.387 2.546,-16.701 5.435,-33.345 8.189,-50.013 3.534,-21.375 7.188,-42.729 10.578,-64.128 2.65,-16.707 4.912,-33.477 7.456,-50.202 2.213,-14.538 4.47,-29.07 6.917,-43.569 2.812,-16.638 6.295,-33.18 8.575,-49.887 0.842,-6.195 2.802,-8.628 8.931,-8.442 28.713,0.87 57.435,1.446 86.144,2.388 11.11,0.363 22.188,1.614 33.298,2.115 20.087,0.909 40.19,1.482 60.281,2.337 14.478,0.615 28.941,1.512 43.417,2.193 32.691,1.539 65.388,2.964 98.075,4.545 20.791,1.008 41.568,2.208 62.025,3.306 13.56,55.491 27.145,111.27 40.836,167.022 13.885,56.52 27.901,113.01 41.755,169.542 0.492,2.001 0.044,4.233 -0.039,6.378 -14.971,-1.374 -29.94,-2.763 -44.914,-4.113 m 1.372,42.135 c -2.65,-0.057 -7.276,-5.172 -7.435,-5.703 -2.616,-8.856 3.682,-13.416 9.558,-13.551 2.539,2.823 5.08,5.646 6.799,7.557 -0.958,7.5 -3.528,11.811 -8.922,11.697 m -431.386,-47.949 c -2.379,1.173 -6.11,-0.954 -9.033,-0.669 -3.291,0.315 -6.291,-2.685 -9.303,-6.585 4.489,-9.564 10.8,-7.053 15.855,-6.615 1.867,0.159 4.444,3.771 4.837,6.12 0.416,2.514 -0.619,6.888 -2.356,7.749 m 60.552,-572.364 c 4.929,3.207 7.224,3.927 6.015,9.855 -2.933,14.4 -3.576,29.256 -5.435,43.887 -1.996,15.69 -4.419,31.326 -6.492,47.007 -2.413,18.267 -4.543,36.573 -7.008,54.837 -1.572,11.655 -3.619,23.244 -5.266,34.89 -0.812,5.742 -1.206,11.541 -1.737,16.776 1.932,0.939 2.569,1.503 3.222,1.53 22.339,0.858 44.673,1.86 67.018,2.433 35.835,0.918 71.679,1.434 107.513,2.343 19.726,0.501 39.444,1.332 59.154,2.265 8.487,0.402 16.941,1.806 25.426,1.965 2.885,0.051 5.816,-2.322 8.726,-3.588 -0.174,-1.113 -0.351,-2.226 -0.531,-3.339 -4.178,-0.612 -8.349,-1.638 -12.545,-1.773 -27.651,-0.882 -55.309,-1.617 -82.965,-2.283 -4.567,-0.111 -9.163,0.375 -9.157,-6.786 32.559,0 65.244,-1.446 97.678,0.795 11.174,0.771 22.679,3.795 34.274,3.888 11.947,0.099 23.895,0.021 36.258,0.021 2.736,9.222 4.678,15.765 7.183,24.201 -8.235,-0.717 -14.787,-1.452 -21.357,-1.824 -15.301,-0.867 -30.603,-1.761 -45.918,-2.289 -46.732,-1.608 -93.465,-3.018 -140.197,-4.569 -20.096,-0.669 -40.185,-1.497 -60.279,-2.241 -27.921,-1.035 -55.845,-2.013 -83.763,-3.15 -2.91,-0.117 -5.787,-1.152 -10.556,-2.157 13.526,-70.62 27.002,-140.982 40.739,-212.694 m 11.448,21.15 c 14.619,10.155 23.418,26.799 17.713,33.063 -5.325,-11.571 -16.629,-19.617 -17.713,-33.063 M 178.591,504.368 C 158.438,470.291 138.385,436.154 118.414,401.969 111.575,390.26 105.017,378.38 98.615,366.428 c -0.723,-1.35 0.395,-3.687 0.662,-5.565 1.098,-0.36 2.196,-0.72 3.295,-1.08 11.823,21.057 23.586,42.15 35.487,63.162 11.936,21.078 23.651,42.294 36.125,63.051 11.617,19.332 21.468,39.543 35.58,57.651 14.763,18.933 25.575,40.947 38.914,62.937 -13.996,9.873 -28.216,19.905 -42.675,30.105 -5.269,-5.697 -1.051,-8.058 2.903,-10.326 8.209,-4.71 16.306,-9.669 24.783,-13.845 6.577,-3.243 6.174,-5.895 2.482,-11.898 -19.59,-31.842 -38.547,-64.071 -57.58,-96.252 M 90.136,354.68 c -7.656,-7.206 -0.822,-10.347 3.94,-14.07 5.354,9.666 5.354,9.666 -3.94,14.07 m 113.559,139.041 c 6.739,-36.663 13.144,-73.386 19.425,-110.127 4.842,-28.308 9.021,-56.73 13.989,-85.014 4.821,-27.453 10.59,-54.738 15.351,-82.2 4.273,-24.633 7.759,-49.401 11.541,-74.118 1.546,-10.095 2.959,-20.208 4.498,-30.753 15.041,1.368 15.179,1.389 13.875,9.783 -5.671,36.546 -11.2,73.116 -17.209,109.608 -8.694,52.806 -17.711,105.558 -26.675,158.316 -6.651,39.12 -13.455,78.213 -20.151,117.327 -1.513,8.826 -2.86,17.679 -4.303,26.652 -12.315,-11.013 -13.08,-24.57 -10.341,-39.474 M 257.557,96.479 c 3.403,-0.66 6.769,-1.872 10.134,-1.881 29.895,-0.081 59.791,0.042 89.685,0.138 5.577,0.015 11.625,-0.516 11.973,8.766 -12.951,0 -25.583,0 -38.216,-0.003 -20.931,0 -41.86,0.003 -62.788,-0.003 -4.482,0 -9.293,0.606 -10.788,-7.017 m 87.561,-69.066 c 7.51,20.796 14.368,39.78 21.601,59.814 h -94.905 c 24.695,-21.213 46.613,-41.439 73.304,-59.814 m 33.168,83.175 c 6.115,0.111 6.721,5.217 7.404,10.473 1.038,7.971 3.294,15.783 5.038,23.658 0.534,2.406 1.086,4.806 1.631,7.209 -0.543,0.354 -1.083,0.708 -1.622,1.062 -14.296,-12.831 -28.587,-25.662 -43.315,-38.883 8.118,-7.812 11.703,-0.264 16.909,4.182 0.768,-11.103 8.547,-7.797 13.955,-7.701 m 7.891,-68.52 c 0.912,-4.167 4.616,-4.227 8.915,-2.538 8.092,3.177 16.537,5.481 24.907,7.905 6.08,1.761 9.978,5.016 9.587,13.578 -7.112,-1.653 -14.021,-2.979 -20.757,-4.908 -5.912,-1.689 -11.903,-3.531 -17.319,-6.351 -2.567,-1.335 -5.808,-5.529 -5.333,-7.686 m 45.833,133.737 c 12.477,24.957 22.063,50.991 32.313,76.722 10.185,25.569 20.049,51.27 30.055,76.911 -0.955,0.327 -1.912,0.651 -2.869,0.975 -5.34,-4.674 -60.021,-134.349 -62.816,-149.502 -0.258,-1.413 1.235,-3.147 3.317,-5.106 m 11.037,-80.451 c 8.001,-3.087 7.78,6.309 9.591,10.449 11.76,26.841 22.939,53.94 34.095,81.042 14.37,34.902 28.491,69.906 42.819,104.826 8.349,20.346 16.912,40.605 25.347,60.912 1.411,3.393 2.679,6.843 4.429,11.328 -1.348,1.446 -2.997,4.608 -4.573,4.572 -2.411,-0.054 -5.844,-1.719 -6.966,-3.741 -3.365,-6.069 -5.99,-12.573 -8.604,-19.029 -22.263,-54.996 -44.345,-110.067 -66.725,-165.015 -9.676,-23.757 -20.179,-47.178 -29.676,-71.001 -1.711,-4.284 -7.647,-11.292 0.263,-14.343 m 124.531,385.569 c -4.662,-11.562 -9.39,-23.097 -13.888,-34.722 -0.732,-1.89 -0.411,-4.185 -0.573,-6.294 1.479,-0.435 2.956,-0.87 4.435,-1.305 l 76.394,187.215 c -0.99,0.774 -1.982,1.545 -2.972,2.316 -2.125,-1.908 -5.172,-3.411 -6.219,-5.796 -4.995,-11.403 -9.435,-23.049 -14.094,-34.599 -14.359,-35.607 -28.726,-71.211 -43.083,-106.815 M 550.817,510.5 c -0.447,-1.707 0.474,-3.771 2.081,-5.97 12.105,19.578 18.493,41.436 27.013,62.319 8.639,21.165 16.496,42.648 24.698,63.996 -0.893,0.345 -1.791,0.696 -2.687,1.041 -6.516,-5.382 -44.031,-94.197 -51.105,-121.386 m -14.151,50.118 c -0.418,-0.975 1.571,-2.979 3.839,-6.975 11.037,25.023 21.31,48.183 31.323,71.457 0.42,0.975 -1.554,2.979 -3.885,7.125 -11.052,-25.143 -21.294,-48.321 -31.277,-71.607 M 416.99,80.759 c -0.81,3.846 2.441,11.295 -5.899,11.124 -7.196,-0.15 -4.949,-6.87 -5.321,-11.358 -0.15,-1.857 -0.603,-4.017 0.117,-5.547 1.229,-2.604 3.495,-6.918 4.94,-6.768 3.303,0.339 7.198,2.22 6.204,7.308 -0.281,1.44 -0.041,2.982 -0.041,5.241 m -40.576,70.188 c 9.25,4.287 15.655,9.552 18.126,18.405 6.822,24.456 13.498,48.957 19.924,73.524 11.072,42.321 22.184,84.636 32.769,127.083 9.767,39.183 18.861,78.537 28.257,117.813 8.018,33.522 16.191,67.008 24.044,100.566 13.828,59.061 27.463,118.167 41.187,177.249 1.576,6.777 3.232,13.53 5.487,22.971 -7.94,-1.491 -13.413,-2.106 -18.585,-3.699 -1.941,-0.6 -4.11,-3.246 -4.607,-5.334 C 514.523,743.891 506.198,708.218 497.992,672.518 490.198,638.603 482.9,604.571 474.818,570.728 463.904,525.002 452.033,479.504 441.335,433.73 429.013,381.02 417.629,328.088 405.599,275.309 c -3.078,-13.497 -7.479,-26.688 -10.537,-40.188 -5.73,-25.338 -10.911,-50.802 -16.359,-76.206 -0.453,-2.103 -1.182,-4.143 -2.289,-7.968 M 352.283,140.51 c 1.145,-1.158 2.289,-2.319 3.434,-3.48 2.382,2.544 4.843,5.028 6.981,7.761 0.151,0.189 -2.06,2.226 -3.171,3.402 -2.415,-2.559 -4.829,-5.121 -7.244,-7.683 m -4.489,41.235 c -1.716,-0.087 -3.297,-3.162 -4.889,-4.905 -0.198,-0.219 -0.064,-0.729 -0.117,-1.098 -0.918,-6.126 -1.843,-12.249 -2.763,-18.372 -8.089,-0.027 -16.176,-0.099 -24.265,-0.048 -1.451,0.009 -2.901,0.516 -5.498,1.011 -0.279,3.912 -0.616,7.881 -0.84,11.856 -0.633,11.205 -1.47,12.036 -12.655,12.039 -2.205,0 -4.409,-0.183 -8.264,-0.357 0.518,-7.953 1.067,-15.576 1.497,-23.205 0.398,-7.059 0.728,-14.124 0.978,-21.189 0.129,-3.741 -0.145,-7.497 0.044,-11.235 0.619,-12.306 3.078,-14.265 16.143,-12.945 -1.23,7.611 -16.79,7.005 -10.734,18.885 12.849,-5.577 21.441,-18.999 35.839,-21.444 0.791,1.458 1.587,2.916 2.378,4.377 -7.815,5.358 -15.614,10.737 -23.45,16.065 -2.142,1.458 -5.586,2.319 -6.31,4.248 -1.254,3.36 -0.854,7.335 -1.151,11.052 2.901,-0.774 6.396,-0.777 8.586,-2.469 6.113,-4.731 11.372,-10.599 17.628,-15.099 2.532,-1.821 7.881,-2.847 9.963,-1.392 2.72,1.902 4.814,6.609 4.848,10.131 0.159,16.149 0.609,17.127 17.28,17.499 6.027,0.135 9.828,0.948 10.268,8.343 0.342,5.694 2.806,11.262 4.752,18.483 -10.352,0 -19.829,0.252 -29.268,-0.231 m 21.753,27.858 c -20.181,-1.098 -40.551,-2.205 -62.163,-3.378 -0.216,-3.726 -0.444,-7.596 -0.651,-11.196 12.711,-6.192 13.707,-7.317 17.232,-19.233 h 10.782 c 3.093,11.103 5.023,12.663 16.146,13.173 1.87,0.084 3.745,0.024 5.614,0.027 15.611,0.045 18.138,3.828 13.04,20.607 m -4.961,44.445 c -6.577,-0.285 -13.918,2.271 -19.548,-3.555 8.687,-4.122 17.321,-3.207 25.962,-2.097 l 0.858,2.544 c -2.427,1.101 -4.9,3.21 -7.272,3.108 m 6.219,15.336 h -25.3 v -8.334 c 7.093,0 14.317,-0.135 21.538,0.045 5.759,0.144 5.087,3.843 3.762,8.289 m -25.111,31.404 c -0.219,-2.958 -0.449,-6.057 -0.755,-10.191 h 25.88 c 0.258,3.306 0.496,6.354 0.796,10.191 z m 0.066,287.964 v -23.637 h 24.267 c 0.513,7.791 1.012,15.309 1.563,23.637 z m 0.15,8.301 h 24.577 v 21.114 H 345.91 Z m 0,21.114 m -0.308,7.887 h 24.474 v 21.141 h -24.474 z m 0,21.141 m 0.083,8.148 h 24.34 v 16.77 h -24.34 z m 0,16.77 m -0.014,8.025 h 23.772 v 14.595 h -23.772 z m 0,14.595 m 24.476,-137.514 h -24.683 v -23.343 h 24.683 z m 0,-23.346 m 0.541,-210.786 h -25.224 v -14.25 h 25.224 z m -0.649,27.219 h -24.246 v -18.858 h 24.246 z m 0.379,47.31 h -24.565 v -14.742 h 24.565 z m 0,-14.742 m -0.055,-7.761 h -24.504 v -16.968 h 24.504 z m -0.573,71.976 h -24.248 v -41.205 h 24.6 v 17.16 c -6.145,0 -12.405,-0.234 -18.625,0.171 -1.448,0.096 -2.757,2.361 -4.128,3.63 1.318,0.954 2.595,2.664 3.955,2.727 6.209,0.297 12.444,0.132 19.668,0.132 -0.52,7.401 -0.853,12.099 -1.222,17.385 m 0.375,59.733 c 0.343,6.09 0.684,12.135 1.086,19.254 h -25.587 v -19.254 z m 0.078,-7.701 h -24.347 v -21.315 h 24.347 z m 0,-21.315 m -0.096,-7.998 H 345.79 v -14.607 h 24.357 z m -26.694,-186.99 c 5.436,-9.6 13.137,-5.094 18.939,-5.814 3.322,-0.408 9.687,-2.874 9.115,5.814 z m 3.283,-42.54 c -0.463,-0.501 -1.296,-0.984 -1.351,-1.539 -0.174,-1.833 -0.066,-3.693 -0.066,-6.456 h 25.173 c 0.186,9.504 0.186,9.504 -23.756,7.995 m -0.937,-15.858 c -0.858,-3.975 -2.21,-7.47 3.73,-8.301 10.194,-1.431 20.174,1.926 22.014,8.301 z m -13.884,-3.333 c 3.369,3.396 5.697,4.653 6.051,6.33 0.681,3.234 0.276,6.702 0.276,10.074 0.007,146.139 0.007,292.278 0.007,438.417 v 13.905 c -3.331,-2.016 -5.968,-2.706 -6.325,-4.02 -0.768,-2.802 -0.416,-5.931 -0.414,-8.925 0.127,-133.377 0.267,-266.754 0.403,-400.134 0.018,-17.52 0.002,-35.04 0.002,-55.647 M 309.194,710.9 c -1.605,-2.427 -1.743,-5.826 -2.758,-9.507 9.61,0.15 17.367,0.465 23.689,7.035 3.5,3.642 9.72,3.876 12.044,0.018 5.554,-9.213 13.797,-5.817 21.285,-6.393 1.464,-0.111 2.961,0.225 5.365,0.438 v 44.52 c -9.586,0.762 -18.757,1.734 -27.948,2.061 -2.424,0.087 -5.889,-1.116 -7.225,-2.937 -8.448,-11.529 -16.569,-23.31 -24.452,-35.235 m 14.844,-469.527 c 1.208,5.616 -2.181,6.192 -6.108,6.102 -5.614,-0.129 -12.226,1.407 -13.434,-8.664 6.819,0.894 13.022,1.707 19.542,2.562 m -16.9,-19.836 c 3.211,-7.392 10.461,-7.746 18.547,0 z m 6.526,14.433 c -3.984,-0.117 -7.96,-1.953 -5.935,-8.895 6.186,1.269 11.464,2.352 16.921,3.474 -0.775,8.442 -7.015,5.538 -10.986,5.421 m -6.526,50.304 h 16.852 c 0.264,3.045 0.536,6.147 0.8,9.174 -16.362,3.447 -17.415,2.949 -17.652,-9.174 m 0.315,153.123 h 17.086 v 16.449 h -17.086 z m 0,16.449 m 0.037,125.571 h 16.847 v 20.907 H 307.49 Z m 0,20.907 m -0.157,8.265 h 16.737 v 21.024 h -16.737 z m 16.834,-37.338 h -16.659 v -23.442 h 16.659 z m 0,-23.442 m -17.2,-29.235 h 17.043 v 20.724 h -17.043 z m -0.002,-175.725 h 17.199 v 12.084 H 306.34 c 0.229,-4.404 0.411,-7.962 0.625,-12.084 m 17.045,-32.301 c -4.838,0 -9.726,0.585 -14.325,-0.309 -1.659,-0.324 -2.625,-4.197 -4.841,-8.091 h 19.166 z m 0.162,24.459 H 307.6 v -16.896 h 16.572 z m 0.043,94.548 h -16.788 v -16.848 h 16.788 z m 0,-16.848 m -16.891,-24.546 h 16.986 v 16.455 h -16.986 z m 0,16.455 m -0.251,-41.124 h 16.923 v 16.329 h -16.923 z m 0,16.329 m 17.237,130.53 h -16.599 v -20.919 h 16.599 z m 0,-20.922 m -0.251,-8.607 h -16.944 v -18.423 h 16.944 z M 307.681,252.566 h 16.693 v 10.035 h -16.693 z m 0,10.035 m 16.339,7.812 v 8.139 c -5.152,0 -10.312,0.387 -15.318,-0.309 -1.074,-0.15 -1.606,-4.212 -2.857,-7.83 z m -0.109,421.77 h -15.968 v -21.369 h 15.968 z m 0,-21.366 m -16.79,-30.951 h 17.106 v 23.289 h -17.106 z m 0,23.292 m -9.082,57.798 c -6.794,-11.322 -13.71,-22.575 -20.289,-34.02 -1.358,-2.367 -1.479,-5.445 -2.168,-8.196 1.271,-0.549 2.543,-1.095 3.815,-1.644 17.848,27.72 35.692,55.44 53.745,83.487 -9.182,5.01 -11.856,-1.74 -14.517,-5.742 -7.307,-10.998 -13.781,-22.551 -20.586,-33.885 m -87.435,-78.813 c 1.908,-0.84 3.819,-1.68 5.731,-2.52 -1.435,1.65 -2.866,3.303 -4.297,4.953 -0.479,-0.813 -0.957,-1.623 -1.434,-2.433 m 43.356,110.982 c 12.349,0.069 24.694,0.405 37.039,0.621 2.997,0.054 6.186,-0.525 8.919,0.345 2,0.639 3.396,3.171 5.064,4.86 -1.857,1.263 -3.736,3.66 -5.556,3.615 -17.469,-0.426 -34.921,-1.473 -52.384,-1.92 -13.851,-0.354 -27.716,-0.153 -41.573,-0.132 -5.418,0.009 -9.957,-0.726 -8.599,-7.416 19.185,0 38.137,-0.081 57.09,0.027 m 24.523,-149.673 c 3.336,12.279 6.612,24.327 9.939,36.561 -4.203,1.617 -8.593,3.303 -13.383,5.145 -4.651,-6.207 -9.501,-12.249 -13.858,-18.63 -3.228,-4.725 -4.374,-9.192 2.445,-12.708 5.179,-2.664 9.663,-6.672 14.857,-10.368 m -24.79,-0.888 c -1.158,-2.58 -1.881,-4.191 -2.711,-6.048 6.011,-3.789 11.811,-7.443 17.906,-11.286 1.207,7.908 0.244,8.955 -15.195,17.334 m 5.148,62.19 c 0.531,-2.112 -0.612,-5.046 -1.818,-7.128 -6.134,-10.608 -12.537,-21.06 -19.38,-32.454 3.022,-2.241 5.778,-4.284 9.022,-6.687 6.021,10.065 11.534,19.275 17.049,28.488 6.237,10.428 8.022,10.863 18.446,4.758 2.491,-1.461 5.124,-2.676 9.223,-4.794 1.328,5.367 2.418,9.762 3.363,13.584 -11.893,7.239 -22.861,13.914 -34.258,20.853 -0.867,-2.553 -1.716,-5.052 -2.871,-8.457 -3.471,1.653 -6.263,2.982 -11.321,5.388 4.697,2.241 7.319,3.492 9.855,4.704 -7.837,6.642 -9.549,6.597 -15.493,-0.738 -7.209,-8.892 -14.366,-17.826 -21.704,-26.937 0.993,-2.721 1.319,-6.072 3.14,-8.037 2.95,-3.183 6.519,-6.51 10.482,-7.872 5.688,-1.956 5.722,4.482 7.953,7.437 3.532,4.677 6.72,9.615 10.009,14.379 -5.181,4.836 -9.483,8.856 -14.884,13.896 9.517,0.984 21.813,-4.914 23.187,-10.383 m 311.74,-268.323 c 7.5,3.822 7.908,11.895 10.406,18.054 15.417,38.001 30.268,76.233 45.286,114.396 13.797,35.067 27.579,70.137 41.307,105.231 0.743,1.902 0.93,4.026 1.379,6.045 -0.803,0.465 -1.605,0.93 -2.405,1.395 -1.479,-1.821 -3.525,-3.414 -4.353,-5.493 -31.428,-78.759 -62.745,-157.56 -93.961,-236.403 -0.212,-0.534 1.206,-1.71 2.341,-3.225 m 125.283,325.719 -0.492,3.666 c -15.234,1.452 -30.463,1.665 -45.684,-0.156 -0.063,-0.876 -0.123,-1.755 -0.186,-2.631 2.672,-0.261 5.342,-0.558 8.019,-0.774 9.234,-0.744 18.468,-1.719 27.716,-2.052 3.513,-0.126 7.081,1.254 10.627,1.947 m 5.282,13.548 c 3.331,3.741 6.258,6.822 8.94,10.107 4.726,5.781 9.282,9.42 18.036,6.726 8.454,-2.601 4.618,3.96 4.024,7.674 -13.399,2.886 -23.5,-2.022 -31.428,-12.96 -2.874,-3.963 -3.265,-7.074 0.428,-11.547 m 20.49,-24.036 c 1.422,-1.869 5.194,-3.249 7.482,-2.775 2.01,0.417 4.03,3.486 4.936,5.814 1.026,2.64 0.285,5.949 1.245,8.631 2.237,6.243 1.724,10.977 -5.52,12.861 -4.467,1.164 -9.87,-3.687 -11.107,-9.834 -0.287,-1.431 -0.167,-2.943 -0.32,-6.243 0.648,-1.824 1.208,-5.715 3.284,-8.454 m -67.305,41.181 c 8.391,-7.662 25.414,-7.689 34.047,-0.045 -12.372,1.422 -22.289,1.317 -34.047,0.045 m 81.075,192.543 c -1.119,0.855 -2.234,1.716 -3.354,2.571 -2.966,-3.012 -6.575,-5.61 -8.799,-9.096 -17.42,-27.363 -34.596,-54.882 -51.672,-82.461 -0.224,-0.366 1.789,-2.121 3.763,-4.368 21.021,30.981 40.718,62.055 60.062,93.354 m 80.829,-5.337 C 796.901,904.103 777.604,868.13 759.016,831.8 c -10.058,-19.665 -18.672,-40.071 -27.795,-59.838 -16.817,-1.842 -33.932,-3.72 -51.047,-5.595 12.707,-1.368 25.415,-0.933 38.06,-1.59 4.698,-0.246 9.274,-2.874 13.899,-4.506 -0.008,0.075 -0.026,0.156 -0.036,0.228 7.483,1.38 7.366,-5.811 9.088,-9.315 10.727,-21.813 9.623,-41.562 -8.112,-56.703 -6.685,-5.703 -16.974,-5.376 -23.047,0.972 -1.919,2.01 -3.609,4.245 -5.403,6.372 -13.98,-35.766 -27.753,-70.827 -41.388,-105.942 -10.214,-26.292 -20.232,-52.656 -30.365,-78.981 -11.31,-29.388 -22.599,-58.785 -34,-88.143 C 585.302,393.803 572.093,358.697 557.846,324.017 547.247,298.22 534.875,273.155 523.943,247.487 501.958,195.878 480.376,144.101 458.72,92.357 453.632,80.198 447.772,68.189 444.436,55.541 442.582,48.506 439.262,45.14 433.37,43.202 408.622,35.072 383.092,29.333 359.56,17.531 c -7.086,-3.555 -15.047,-4.068 -22.155,1.842 -27.606,22.95 -55.385,45.693 -82.992,68.643 -8.778,7.296 -8.138,17.937 1.122,24.195 1.813,1.221 3.706,2.322 6.522,4.077 -22.131,127.698 -44.25,255.303 -66.614,384.348 -2.556,-2.127 -4.315,-2.979 -5.14,-4.38 -5.429,-9.21 -10.703,-18.513 -15.938,-27.834 -17.89,-31.842 -35.799,-63.675 -53.598,-95.571 -18.333,-32.853 -36.448,-65.829 -54.846,-98.649 -9.175,-16.359 -18.622,-32.568 -28.233,-48.675 -4.309,-7.218 -9.442,-8.499 -16.924,-5.238 -9.963,4.338 -12.072,12.612 -5.913,22.833 18.591,30.864 37.251,61.683 55.696,92.631 19.94,33.459 39.947,66.885 59.415,100.617 19.541,33.861 38.507,68.055 57.53,102.213 1.227,2.208 1.429,5.475 0.979,8.055 -3.925,22.587 -8.209,45.111 -12.183,67.689 -4.8,27.264 -9.19,54.603 -14.16,81.834 -4.411,24.147 -9.375,48.195 -14.302,73.332 -2.888,0 -6.495,-0.867 -9.357,0.225 -3.438,1.311 -7.362,3.669 -9.033,6.702 -2.012,3.657 -1.938,8.49 -2.676,12.825 -3.513,20.64 -7.014,41.28 -10.485,61.926 -3.288,19.575 -6.467,39.168 -9.807,58.734 -3.456,20.271 -7.118,40.503 -10.554,60.777 -3.314,19.563 -6.452,39.159 -9.669,58.737 -3.219,19.584 -6.195,39.213 -9.75,58.74 -1.821,10.02 0.213,13.098 10.374,14.412 7.923,1.023 15.75,2.811 23.811,4.296 -6.368,16.965 -5.781,22.167 2.706,29.148 7.603,6.249 18.69,8.28 24.973,3.096 10.59,-8.745 13.209,-8.982 9.342,-29.733 7.203,0 14.324,-0.513 21.347,0.099 22.449,1.947 44.86,4.389 67.3,6.489 10.332,0.966 20.717,1.359 31.04,2.409 27.918,2.844 55.789,6.174 83.728,8.781 21.032,1.962 42.143,3.078 63.219,4.626 9.977,0.735 19.964,1.437 29.919,2.442 20.565,2.073 41.103,4.428 61.67,6.495 10.696,1.071 21.451,1.53 32.125,2.763 4.617,0.531 9.084,2.322 13.956,3.627 -5.005,12.699 -12.534,24.987 -1.078,36.231 9.714,9.534 22.102,8.202 33.537,3.075 14.182,-6.357 12.346,-19.389 10.758,-32.175 7.15,0 13.51,0.261 19.825,-0.141 2.213,-0.141 4.929,-1.389 6.377,-3.039 8.29,-9.417 15.946,-19.401 24.415,-28.641 13.872,-15.132 28.166,-29.874 42.344,-44.724 17.278,-18.093 34.291,-36.456 52.057,-54.057 10.172,-10.077 21.981,-18.492 32.406,-28.338 13.628,-12.864 25.823,-27.366 40.226,-39.234 7.011,-5.781 7.099,-9.072 3.363,-16.017"
         fill="#000000"
         id="path2" />
      <path
         d="m 396.901,1009.017 c 4.716,-11.472 3.456,-16.968 -8.418,-20.886 -17.202,-5.676 -34.842,-11.607 -52.695,-13.341 -29.328,-2.853 -58.746,-1.107 -86.742,10.521 -6.909,2.871 -14.631,3.783 -22.911,5.826 -1.386,-17.934 8.946,-29.265 16.059,-41.094 10.857,-18.069 24.156,-34.665 36.408,-51.891 6.447,-9.063 13.089,-17.997 19.185,-27.291 2.034,-3.099 2.649,-7.131 3.909,-10.737 -4.044,-0.438 -8.586,-2.28 -12.042,-1.053 -11.139,3.942 -22.635,7.785 -32.616,13.911 -19.719,12.108 -40.203,22.257 -61.818,30.39 -7.269,2.736 -13.83,7.467 -21.177,9.873 -10.161,3.324 -20.775,5.25 -31.143,7.98 -0.984,0.258 -1.578,1.983 -4.041,5.307 6.657,0 11.01,0.675 15.081,-0.111 24.603,-4.77 45.873,-18.399 69.204,-26.76 18.474,-6.618 35.109,-18.333 52.638,-27.642 4.452,-2.364 9.201,-4.167 13.815,-6.228 0.366,0.561 0.735,1.122 1.101,1.686 -1.416,1.92 -2.877,3.813 -4.242,5.772 -17.178,24.66 -34.722,49.08 -51.306,74.136 -6.03,9.108 -10.002,19.632 -14.445,29.715 -2.613,5.928 -4.428,13.842 1.329,17.436 4.575,2.856 12.045,1.104 18.231,1.296 0.651,0.024 1.296,-0.723 1.992,-0.978 26.712,-9.84 53.937,-15.861 82.773,-14.043 19.863,1.251 38.844,5.847 57.495,12.021 10.059,3.333 10.293,5.274 6.207,15.162 -3.099,7.5 -0.582,18.075 5.595,19.401 6.507,1.398 13.668,2.742 20.103,-2.682 -3.069,-1.818 -6.246,-2.937 -9.48,-3.135 -11.493,-0.711 -12.399,-1.983 -8.049,-12.561"
         fill="#000000"
         id="path4" />
      <path
         d="m 630.372,683.07 c -1.314,-2.601 -4.062,-4.482 -6.243,-6.759 -2.685,1.443 -5.523,2.178 -5.604,3.144 -0.456,5.388 -1.593,11.355 0.225,16.074 1.176,3.048 6.81,5.109 10.824,6.132 4.041,1.029 6.273,-1.815 5.082,-6.09 -1.185,-4.248 -2.313,-8.604 -4.284,-12.501"
         fill="#000000"
         id="path6" />
      <path
         d="m 650.836,777.142 c 0.183,3.876 -0.831,8.544 0.918,11.664 1.569,2.802 6.018,4.659 9.519,5.4 1.467,0.312 5.22,-3.165 5.448,-5.202 1.059,-9.345 -4.995,-13.881 -15.885,-11.862"
         fill="#000000"
         id="path8" />
      <path
         d="m 342.357,42.904 c -4.707,1.038 -7.818,0.834 -9.621,2.268 -10.932,8.706 -21.621,17.724 -32.229,26.826 -1.326,1.14 -1.686,3.402 -2.496,5.145 2.268,0.033 5.289,1.032 6.678,-0.054 11.568,-9.051 22.86,-18.456 34.152,-27.852 0.966,-0.801 1.332,-2.322 3.516,-6.333"
         fill="#000000"
         id="path10" />
      <path
         d="m 322.941,75.245 c 11.319,2.802 13.344,-7.884 20.226,-9.729 1.059,-0.282 1.164,-4.113 2.121,-7.929 -10.926,2.649 -14.661,10.782 -22.347,17.658"
         fill="#000000"
         id="path12" />
      <path
         d="m 284.084,664.654 c 2.454,-2.526 4.911,-5.049 7.368,-7.575 -0.585,-1.323 -1.167,-2.643 -1.749,-3.966 -2.82,1.005 -6.24,1.377 -8.235,3.258 -1.212,1.14 -0.222,4.617 -0.222,7.044 z"
         fill="#000000"
         id="path14" />
      <path
         d="m 272.837,665.367 c -1.281,-1.281 -2.487,-3.477 -3.87,-3.594 -1.512,-0.129 -3.192,1.659 -4.8,2.613 0.99,1.467 1.983,2.931 3.516,5.205 2.298,-1.881 3.726,-3.054 5.154,-4.224"
         fill="#000000"
         id="path16" />
    </g>
  </g>
</svg>
