<?xml version="1.0" encoding="UTF-8" standalone="no"?>
<svg
   width="315.39453"
   height="326.83978"
   version="1.1"
   id="svg10"
   sodipodi:docname="musica2.svg"
   inkscape:version="1.1.2 (0a00cf5339, 2022-02-04)"
   inkscape:export-filename="/home/fernando/Proyectos/LIBROS/FORMULATION/NOTEBOOK-MUSIC/notebook/pictures/logos/musica2.png"
   inkscape:export-xdpi="182.6284"
   inkscape:export-ydpi="182.6284"
   xmlns:inkscape="http://www.inkscape.org/namespaces/inkscape"
   xmlns:sodipodi="http://sodipodi.sourceforge.net/DTD/sodipodi-0.dtd"
   xmlns="http://www.w3.org/2000/svg"
   xmlns:svg="http://www.w3.org/2000/svg">
  <defs
     id="defs14" />
  <sodipodi:namedview
     id="namedview12"
     pagecolor="#ffffff"
     bordercolor="#666666"
     borderopacity="1.0"
     inkscape:pageshadow="2"
     inkscape:pageopacity="0.0"
     inkscape:pagecheckerboard="0"
     showgrid="false"
     inkscape:zoom="1.3339844"
     inkscape:cx="151.80088"
     inkscape:cy="155.92386"
     inkscape:window-width="1920"
     inkscape:window-height="1016"
     inkscape:window-x="0"
     inkscape:window-y="0"
     inkscape:window-maximized="1"
     inkscape:current-layer="svg10" />
  <path
     d="m 254.20256,80.065336 c 5.347,-18.482 10.042,-37.162 15.183,-55.704 2.126,-7.671 2.932,-21.6658002 10.53,-24.33770024 2.422,-0.1884 4.567,0.7793 6.687,1.84130004 24.399,12.2234002 36.534,37.0364002 23.446,62.3994002 -1.607,3.115 -4.795,9.489 -7.146,11.817 -3.088,3.057 -8.209,1.643 -10.027,-2.009 -2.15,-4.317 10.516,-16.791 -16.074,-31.153 -3.621,12.948 -7.16,25.999 -10.51,39.017 -2.184,8.489 -4.946,22.838004 -8.814,30.172004 -9.31,15.392 -30.38,18.125 -43.202,5.578 -25.051,-24.514004 12.491,-65.137004 39.927,-37.621004 z m 30.107,-65.656 c -1.409,5.496 -2.551,11.168 -4.394,16.534 9.338,5.099 14.668,8.58 21.018,17.461 0.672,0.706 1.367,1.4 1.99,2.15 -0.264,-16.75 -1.241,-26.804 -18.614,-36.145 z m -50.984,68.916 c -21.066,1.62 -18.712,30.833004 1.428,30.408004 20.249,-2.711 18.759,-29.962004 -1.428,-30.408004 z"
     id="path2" />
  <path
     d="m 52.704558,209.31434 c -1.303,-11.436 -4.221,-23.022 -6.423,-34.346 l -11.231,-59.401 c -4.803,-25.769004 7.839,-25.268004 26.935,-34.644004 l 40.804002,-20.193 c 5.633,-2.729 13.196,-7.414 19.216,-8.443 15.749,-1.473 18.711,12.406 20.19,24.115 l 13.015,100.748004 c 0.77,5.821 2.054,11.936 1.894,17.806 -1.158,42.385 -68.799002,55.14 -67.216002,14.912 0.849,-21.603 22.693002,-37.722 42.975002,-38.812 3.077,-0.165 6.231,0.094 9.309,0.223 l -6.277,-49.005 c -1.043,-8.199 -3.301,-19.049 -2.613,-27.058004 -5.016,1.855 -9.831,4.516 -14.654,6.828004 l -54.471002,26.512 c -3.875,1.851 -9.162,3.88 -12.593,6.234 l -0.061,0.489 c 0.076,7.099 2.599,16.718 3.947,23.943 2.976,15.945 5.943,31.894 9.182,47.788 5.072,24.89 8.908,40.557 -15.491,58.451 -20.613,15.117 -53.7179996,10.312 -48.61399964,-18.699 3.83760004,-21.812 30.04199964,-41.414 52.17699964,-37.448 z M 123.39756,63.980336 c -4.144,1.385 -8.054,3.804 -11.951,5.766 l -46.804002,23.083 c -25.333,12.248004 -19.58,4.712 -16.323,29.745004 l 3.184,-1.27 c 6.995,-3.171 13.851,-6.682 20.753,-10.053 L 108.94456,93.427336 c 6.456,-3.111 15.655,-8.511 22.259,-10.102 l -0.105,-0.465 c -1.081,-4.916 -0.044,-19.3 -7.701,-18.88 z m 7.806,119.077004 c -28.43,4.024 -42.105002,40.761 -15.093,39.673 18.409,-2.694 32.398,-18.297 28.091,-37.269 -4.24,-2.062 -8.231,-3.118 -12.998,-2.404 z m -85.472002,37.496 c -28.9141,4.344 -47.0686996,40.934 -22.4987,41.88 31.8287,-1.125 45.1607,-45.121 22.4987,-41.88 z"
     id="path4" />
  <path
     d="m 192.96356,276.46834 -0.01,-83.763 c 0,-11.563 -0.009,-23.21 14.621,-24.894 6.009,-0.591 11.219,2.55 16.464,4.96 l 15.521,7.094 c 14.54,6.652 29.275,13.078 43.643,20.084 11.985,5.844 9.94,16.194 9.937,27.313 l 0.01,48.967 c 0.005,4.692 0.192,9.503 -0.246,14.175 -2.764,29.493 -45.537,33.935 -54.104,5.365 -7.384,-24.626 18.471,-44.039 42.365,-30.626 0.001,-7.724 0.67,-48.257 -0.645,-51.981 -1.072,-3.036 -8.686,-5.263 -11.407,-6.528 l -20.569,-9.411 -25.346,-11.614 c -10.105,-4.656 -18.045,-12.559 -18.05,3.616 l 0.003,96.341 c -0.001,9.597 0.772,19.749 -4.664,28.181 -8.405,13.041 -26.051,17.161 -39.121,8.604 -30.488,-19.964 0.093,-67.023 31.598,-45.883 z m 71.399,-4.155 c -20.482,2.159 -19.194,30.832 1.403,30.785 20.431,-1.374 20.283,-30.612 -1.403,-30.785 z m -86.969,10.748 c -23.294,2.001 -20.623,32.401 0,31.884 21.998,-3.074 18.929,-31.117 0,-31.884 z"
     id="path8" />
</svg>
