<?xml version="1.0" encoding="UTF-8" standalone="no"?>
<svg
   width="365.78915"
   height="325.49182"
   version="1.1"
   id="svg8"
   sodipodi:docname="musica1.svg"
   inkscape:version="1.1.2 (0a00cf5339, 2022-02-04)"
   xmlns:inkscape="http://www.inkscape.org/namespaces/inkscape"
   xmlns:sodipodi="http://sodipodi.sourceforge.net/DTD/sodipodi-0.dtd"
   xmlns="http://www.w3.org/2000/svg"
   xmlns:svg="http://www.w3.org/2000/svg">
  <defs
     id="defs12" />
  <sodipodi:namedview
     id="namedview10"
     pagecolor="#ffffff"
     bordercolor="#666666"
     borderopacity="1.0"
     inkscape:pageshadow="2"
     inkscape:pageopacity="0.0"
     inkscape:pagecheckerboard="0"
     showgrid="false"
     inkscape:zoom="1.3339844"
     inkscape:cx="182.53587"
     inkscape:cy="161.92094"
     inkscape:window-width="1920"
     inkscape:window-height="1016"
     inkscape:window-x="0"
     inkscape:window-y="0"
     inkscape:window-maximized="1"
     inkscape:current-layer="svg8" />
  <path
     d="m 205.57146,114.77052 -0.006,-96.270996 c -0.022,-6.945 -2.364,-15.6269004 4.961,-18.46430045 5.092,-0.4275 7.176,3.08780005 7.423,7.74530005 17.945,-0.781 32.467,13.1750004 32.493,31.2880004 0.01,6.95 -5.684,27.785 -14.302,17.664 -5.2,-6.107 9.245,-17.263 -2.966,-30.917 -4.07,-4.55 -9.316,-6.045 -15.225,-6.362 l 0.012,106.729996 c 0.009,18.051 0.164,30.554 -17.78,41.282 -40.373,23.182 -85.642,-18.501 -58.46,-49.338 15.192,-17.235 46.864,-18.652996 63.85,-3.357 z m -33.972,2.06 c -8.107,0.98 -16.019,4.025 -21.155,10.663 -14.298,18.479 9.474,37.258 29.368,34.002 l 0.374,-0.065 c 11.866,-1.08 26.01,-10.48 24.774,-23.831 -1.38,-14.902 -20.176,-23.012 -33.361,-20.769 z"
     id="path2" />
  <path
     d="m 90.807465,187.90652 -0.017,-122.024996 c -0.01,-7.18 -2.46,-14.261 4.263,-17.846 5.440995,-0.721 7.177995,2.745 7.896995,7.521 20.033,0.779 34.987,16.287 32.724,36.66 -0.745,6.701 -7.428,23.297996 -14.555,13.511996 -3.387,-4.652 1.607,-9.631996 2.184,-14.411996 1.668,-13.805 -7.231,-22.227 -20.353,-23.844 l 0.01,134.054996 c 0,6.358 0.305,12.893 -0.317,19.222 -1.807,18.378 -17.858995,31.04 -34.503995,36.269 -27.986,8.383 -66.0608004,-6.408 -68.0544004,-38.281 -2.6689,-42.669 58.1154004,-60.503 90.7224004,-30.831 z m -39.107,-2.655 c -11.236,0.124 -22.713,3.891 -30.7226,12.055 -22.6293004,23.066 2.9064,50.357 30.7226,49.809 17.913,-0.624 39.368,-11.776 38.733,-32.205 -0.584,-18.737 -21.775,-30.564 -38.733,-29.659 z"
     id="path4" />
  <path
     d="m 232.38246,270.60552 -0.012,-90.624 c -0.13,-22.677 2.017,-24.988 22.079,-30.787 l 93.396,-26.581 c 3.621,-1.039 7.342,-2.249 11.077,-2.788 9.464,-0.954 6.392,15.059 6.386,21.142 l 0.01,117.025 c 0.019,3.839 0.206,7.769 -0.096,11.596 -2.794,35.379 -67.496,38.237 -75.638,4.084 -4.362,-18.299 10.436,-32.424 27.206,-36.107 12.953,-2.846 25.116,-0.089 36.151,6.965 v -70.544 c -4.516,0.947 -8.982,2.36 -13.421,3.618 l -94.958,27.148 v 2.426 l -0.003,64.097 c 0.001,7.265 0.916,18.743 0.253,25.39 -3.554,35.664 -66.685,39.758 -75.61,3.709 -4.468,-18.045 10.526,-32.608 26.985,-36.495 12.953,-3.06 25.063,-0.215 36.195,6.726 z m 120.559,-136.534 c -6.867,1.55 -13.554,3.812 -20.318,5.743 l -36.656,10.426 c -15.377,4.419 -32.884,8.446 -47.708,13.543 -5.252,1.806 -4.099,21.316 -3.855,27.739 l 0.158,0.195 c 8.998,-2.025 17.906,-4.861 26.777,-7.388 l 67.228,-19.274 c 4.719,-1.379 9.5,-2.905 14.374,-3.625 0,-3.295 0.367,-26.217 0,-27.359 z m -28.118,114.518 c -17.846,1.699 -33.555,18.607 -17.016,31.376 6.05,4.671 13.989,6.245 21.475,5.969 37.303,-3.71 25.002,-40.657 -4.459,-37.345 z m -121.468,26.24 c -18.286,2.347 -32.117,20.157 -15.064,32.955 6.201,4.654 14.645,6.301 22.235,5.399 10.234,-1.535 23.509,-8.947 21.728,-21.168 -1.749,-12.003 -17.927,-19.134 -28.899,-17.186 z"
     id="path6" />
</svg>
