<?xml version="1.0" encoding="UTF-8"?>
<!DOCTYPE svg PUBLIC "-//W3C//DTD SVG 1.1//EN" "http://www.w3.org/Graphics/SVG/1.1/DTD/svg11.dtd">
<svg version="1.1" xmlns="http://www.w3.org/2000/svg" xmlns:xlink="http://www.w3.org/1999/xlink" x="0" y="0" width="1154.375" height="267.629" viewBox="0, 0, 1154.375, 267.629">
  <g id="layer1">
    <path d="M970.746,216.165 C970.426,216.269 970.128,216.285 969.925,216.187 C919.653,192.055 836.4,212.092 722.284,239.557 C713.226,241.735 703.793,244.006 694.206,246.292 C644.824,258.063 593.232,265.105 537.213,267.054 C486.535,268.816 427.985,266.601 358.532,259.367 C283.707,251.575 207.593,239.121 150.721,228.797 C78.598,215.706 30.184,204.877 27.997,204.385 C20.988,202.813 18.025,201.236 20.109,200.579 C20.114,200.579 20.118,200.579 20.124,200.572 C22.213,199.913 28.595,200.452 35.559,202.048 C36.532,202.27 84.406,213.166 153.667,225.988 C209.024,236.236 283.287,248.632 356.814,256.513 C459.699,267.541 576.642,271.308 691.508,244.054 C701.226,241.749 710.784,239.452 719.968,237.252 C780.207,222.82 830.016,210.884 875.052,205.837 C920.448,200.751 951.305,204.026 972.044,214.269 C972.453,214.471 972.306,215.062 971.721,215.59 C971.425,215.857 971.073,216.055 970.746,216.162" fill="#5E3719" id="path189659"/>
    <path d="M972.741,208.523 C972.408,208.631 972.1,208.644 971.892,208.536 C921.933,182.724 839.874,200.447 725.498,225.15 C716.397,227.116 706.904,229.165 697.257,231.226 C648.531,241.636 597.18,247.276 541.089,247.661 C490.194,248.011 431.269,244.106 361.368,234.802 C286.029,224.776 209.615,210.011 152.651,197.969 C80.474,182.712 31.173,170.167 28.99,169.609 C21.378,167.667 16.642,165.421 18.528,164.625 C20.391,163.822 28.167,164.8 35.727,166.767 C37.752,167.293 203.529,210.128 359.261,231.409 C462.962,245.581 580.61,252.772 694.518,228.609 C704.308,226.532 713.943,224.465 723.178,222.484 C781.225,210.033 833.239,198.876 878.045,195.097 C923.016,191.305 953.517,195.531 974.109,206.483 C974.531,206.708 974.373,207.349 973.761,207.914 C973.45,208.2 973.083,208.412 972.741,208.523" fill="#5E3719" id="path189661"/>
    <path d="M974.199,199.474 C973.853,199.587 973.531,199.596 973.314,199.474 C923.335,171.553 841.845,186.652 726.015,208.114 C716.759,209.828 707.088,211.621 697.256,213.418 C648.548,222.327 596.695,226.348 539.628,224.86 C487.614,223.502 427.164,217.503 355.304,205.572 C191.54,178.381 21.687,129.646 12.896,127.109 C4.356,124.645 -1.357,121.797 0.28,120.787 C1.943,119.783 10.267,121.021 18.779,123.526 C21.691,124.38 192.03,174.118 352.748,201.475 C459.469,219.64 579.887,231.037 694.438,210.316 C704.427,208.509 714.255,206.707 723.659,204.983 C782.625,194.174 834.894,184.593 879.852,182.317 C924.73,180.046 955.071,185.413 975.645,197.252 C976.086,197.506 975.917,198.208 975.272,198.82 C974.946,199.13 974.559,199.358 974.199,199.474" fill="#5E3719" id="path189663"/>
    <path d="M976.213,191.755 C975.855,191.871 975.522,191.876 975.299,191.743 C925.644,162.103 840.925,175.628 729.234,193.458 C719.946,194.941 710.229,196.492 700.351,198.045 C652.173,205.619 600.534,208.198 543.432,205.058 C491.256,202.188 430.509,194.364 358.275,180.192 C193.485,147.86 23.727,93.731 14.96,90.921 C5.847,88 -0.572,84.595 0.786,83.366 C2.164,82.142 10.767,83.589 19.875,86.566 C22.862,87.539 193.429,142.89 355.428,175.45 C462.828,197.036 583.761,212.116 697.526,194.51 C707.571,192.955 717.455,191.402 726.9,189.917 C786.05,180.617 838.077,172.438 882.805,171.462 C927.291,170.491 957.306,176.807 977.732,189.373 C978.186,189.652 978.004,190.408 977.331,191.06 C976.99,191.392 976.587,191.634 976.213,191.755" fill="#5E3719" id="path189665"/>
    <path d="M978.287,184.156 C977.916,184.276 977.575,184.278 977.346,184.132 C928.049,152.807 844.401,164.027 732.723,179.006 C723.42,180.254 713.675,181.561 703.77,182.865 C656.133,189.136 604.771,190.289 547.744,185.503 C495.525,181.12 434.633,171.471 362.217,155.062 C196.889,117.599 27.657,58.167 18.937,55.09 C9.299,51.688 2.208,47.683 3.279,46.201 C4.35,44.714 13.203,46.376 22.861,49.852 C25.887,50.938 196.285,111.852 359.101,149.632 C466.893,174.645 588.061,193.413 700.954,178.882 C711.035,177.585 720.954,176.283 730.422,175.041 C789.657,167.267 841.394,160.477 885.855,160.785 C929.931,161.089 959.616,168.333 979.88,181.612 C980.346,181.918 980.151,182.728 979.451,183.422 C979.095,183.775 978.675,184.03 978.287,184.156" fill="#5E3719" id="path189667"/>
    <path d="M187.862,112.878 C169.263,99.831 160.138,73.037 157.165,62.542 L157.5,61.325 C157.971,59.617 156.967,57.85 155.259,57.38 L154.95,57.295 C153.242,56.824 151.476,57.828 151.005,59.536 L124.657,155.221 C119.085,148.264 108.258,144.226 96.375,145.56 C79.997,147.399 67.827,158.74 69.191,170.89 C70.555,183.041 84.937,191.401 101.315,189.562 C116.856,187.818 128.607,177.515 128.601,166.084 C128.679,165.919 128.747,165.747 128.796,165.565 L146.602,100.903 C150.988,105.435 162.44,117.103 170.79,124.151 C181.32,133.042 164.28,151.312 164.28,151.312 C175.349,147.372 211.292,129.313 187.862,112.878" fill="#886138" id="path189669"/>
    <path d="M338.44,213.715 L337.8,149.287 L338.091,149.258 L337.87,126.947 L251.856,137.222 L252.006,152.344 L252.078,159.533 L252.633,215.556 C247.936,212.859 241.326,212.209 234.729,214.297 C224.099,217.661 217.511,226.851 220.033,234.823 C222.556,242.796 233.185,246.532 243.816,243.169 C254.316,239.847 260.96,230.839 258.546,222.937 L257.909,158.825 L331.968,149.995 L332.528,206.333 C327.831,203.636 321.266,202.987 314.669,205.074 C304.039,208.438 297.474,217.627 299.997,225.6 C302.52,233.572 313.114,237.31 323.745,233.946 C334.245,230.623 340.854,221.617 338.44,213.715" fill="#A17A51" id="path189671"/>
    <path d="M469.976,221.212 L469.639,141.658 C469.633,140.116 468.261,138.927 466.719,138.934 L465.603,138.941 C464.061,138.949 462.909,140.148 462.915,141.689 L463.217,212.866 C457.773,209.8 450.495,209.026 443.054,211.334 C431.063,215.053 423.581,225.358 426.369,234.351 C429.159,243.344 441.187,247.62 453.178,243.901 C465.021,240.227 472.341,230.129 469.976,221.215" fill="#734B23" id="path189673"/>
    <path d="M632.797,181.079 C619.989,172.095 613.706,153.644 611.659,146.417 L611.89,145.579 C612.214,144.403 611.523,143.186 610.347,142.862 L610.134,142.804 C608.957,142.48 607.74,143.171 607.417,144.347 L589.273,210.237 C585.437,205.447 577.98,202.666 569.797,203.584 C558.519,204.85 550.139,212.66 551.078,221.027 C552.018,229.395 561.921,235.151 573.199,233.885 C583.901,232.684 591.993,225.589 591.989,217.718 C592.043,217.604 592.089,217.486 592.124,217.36 L604.385,172.833 C607.405,175.954 615.291,183.988 621.041,188.842 C628.293,194.965 616.558,207.546 616.558,207.546 C624.18,204.832 648.931,192.397 632.797,181.079" fill="#A17A51" id="path189675"/>
    <path d="M792.657,198.667 L798.733,151.476 L798.95,151.483 L801.054,135.142 L737.094,133.921 L735.669,144.997 L734.991,150.263 L729.707,191.298 C726.545,188.848 721.776,187.702 716.738,188.559 C708.621,189.939 702.868,195.992 703.903,202.08 C704.939,208.168 712.335,211.981 720.452,210.6 C728.47,209.236 734.244,203.323 733.281,197.298 L739.327,150.337 L794.396,151.401 L789.083,192.667 C785.921,190.217 781.185,189.075 776.148,189.932 C768.03,191.312 762.295,197.368 763.33,203.455 C764.366,209.543 771.736,213.353 779.853,211.972 C787.872,210.609 793.62,204.691 792.657,198.667" fill="#886138" id="path189677"/>
    <path d="M886.781,180.898 L896.85,124.614 C897.046,123.523 896.23,122.505 895.14,122.31 L894.35,122.168 C893.259,121.973 892.289,122.672 892.093,123.763 L883.084,174.121 C879.633,171.248 874.588,169.757 869.028,170.425 C860.07,171.501 853.445,177.817 854.251,184.535 C855.058,191.254 863.007,195.835 871.966,194.76 C880.815,193.697 887.298,187.507 886.781,180.898" fill="#734B23" id="path189679"/>
    <path d="M1081.951,24.233 L1073.542,19.937 C1072.911,19.614 1072.658,18.833 1072.981,18.201 L1073.073,18.019 C1073.397,17.386 1074.177,17.134 1074.81,17.456 L1083.219,21.752 C1083.85,22.075 1084.104,22.857 1083.78,23.489 L1083.688,23.671 C1083.365,24.303 1082.584,24.556 1081.951,24.233" fill="#181919" id="path189681"/>
    <path d="M1074.444,19.419 C1070.841,26.472 1067.802,17.881 1068.765,15.996 C1069.735,14.097 1078.352,11.771 1074.444,19.419" fill="#323333" id="path189683"/>
    <path d="M1076.671,34.568 L1068.262,30.272 C1067.631,29.949 1067.377,29.168 1067.7,28.536 L1067.793,28.354 C1068.117,27.721 1068.897,27.469 1069.53,27.791 L1077.939,32.087 C1078.57,32.41 1078.824,33.192 1078.5,33.824 L1078.407,34.006 C1078.085,34.638 1077.303,34.891 1076.671,34.568" fill="#181919" id="path189685"/>
    <path d="M1069.164,29.754 C1065.561,36.807 1062.522,28.216 1063.485,26.331 C1064.455,24.432 1073.072,22.106 1069.164,29.754" fill="#323333" id="path189687"/>
    <path d="M1088.275,20.948 L1096.684,25.244 C1097.316,25.567 1098.097,25.314 1098.42,24.682 L1098.513,24.5 C1098.836,23.868 1098.583,23.086 1097.951,22.763 L1089.543,18.468 C1088.91,18.145 1088.129,18.397 1087.806,19.03 L1087.713,19.212 C1087.39,19.844 1087.643,20.625 1088.275,20.948" fill="#181919" id="path189689"/>
    <path d="M1096.576,24.21 C1092.973,31.263 1101.714,28.691 1102.678,26.806 C1103.649,24.907 1100.484,16.562 1096.576,24.21" fill="#323333" id="path189691"/>
    <path d="M1082.995,31.283 L1091.404,35.579 C1092.036,35.902 1092.817,35.649 1093.14,35.017 L1093.233,34.835 C1093.556,34.203 1093.303,33.421 1092.671,33.099 L1084.263,28.803 C1083.63,28.48 1082.849,28.732 1082.526,29.365 L1082.433,29.547 C1082.11,30.179 1082.363,30.96 1082.995,31.283" fill="#181919" id="path189693"/>
    <path d="M1091.296,34.545 C1087.693,41.597 1096.434,39.025 1097.398,37.141 C1098.369,35.242 1095.204,26.896 1091.296,34.545" fill="#323333" id="path189695"/>
    <path d="M968.619,250.6 C960.323,246.361 952.665,241.286 947.057,236.308 C940.71,230.674 937.041,225.235 936.447,220.578 C934.422,204.686 943.179,195.514 952.449,185.803 C953.552,184.648 954.692,183.453 955.82,182.243 C962.026,175.58 960.942,170.068 960.892,169.836 C960.783,169.321 960.972,168.782 961.383,168.454 C961.794,168.124 962.355,168.05 962.833,168.27 C962.869,168.286 966.678,170.001 971.436,170.216 C977.617,170.496 982.46,168.217 985.829,163.441 C992.558,153.904 993.126,148.482 992.418,145.613 C991.945,143.7 990.732,142.232 988.813,141.251 C988.04,140.857 987.147,140.538 986.16,140.305 C986.043,140.277 985.932,140.236 985.827,140.182 C985.41,139.969 985.108,139.564 985.065,139.087 C985.012,138.496 985.311,137.949 985.851,137.706 C986.153,137.523 991.551,134.001 993.226,116.905 C993.792,111.133 998.764,102.532 1008.345,97.293 C1013.303,94.582 1018.746,93.192 1024.524,93.161 C1031.162,93.126 1038.06,94.912 1045.026,98.471 C1045.362,98.644 1045.701,98.821 1046.041,99.003 C1046.39,99.172 1046.73,99.342 1047.069,99.515 C1054.046,103.08 1059.545,107.629 1063.413,113.035 C1066.778,117.741 1068.844,122.971 1069.554,128.583 C1070.157,133.353 1069.73,138.217 1068.319,142.648 C1067.021,146.727 1064.964,150.16 1062.529,152.312 C1049.658,163.687 1050.008,170.141 1050.038,170.492 C1050.161,171.073 1049.895,171.638 1049.385,171.944 C1048.971,172.191 1048.466,172.184 1048.047,171.97 C1047.942,171.916 1047.843,171.85 1047.753,171.772 C1046.985,171.109 1046.202,170.572 1045.425,170.175 C1043.469,169.175 1041.534,169.054 1039.674,169.815 C1036.923,170.94 1032.873,174.589 1029.2,185.587 C1027.339,191.162 1028.36,196.453 1032.236,201.311 C1035.191,205.015 1038.721,207.039 1038.756,207.059 C1039.218,207.32 1039.491,207.822 1039.46,208.351 C1039.429,208.881 1039.1,209.347 1038.611,209.554 C1038.404,209.645 1033.293,211.991 1031.531,220.924 C1031.214,222.529 1030.917,224.134 1030.631,225.688 C1028.187,238.908 1025.88,251.394 1011.798,259.075 C1007.677,261.323 1001.12,261.538 992.835,259.696 C985.515,258.069 976.914,254.838 968.619,250.6" fill="#886138" id="path189697"/>
    <path d="M1002.918,259.467 C981.768,259.467 940.118,236.493 938.073,220.451 C936.147,205.335 944.251,196.804 953.635,186.976 C954.752,185.805 955.885,184.597 957.019,183.38 C962.915,177.052 962.766,171.543 962.568,169.947 C963.832,170.457 967.796,171.884 972.414,171.884 C978.698,171.883 983.661,169.36 987.168,164.389 C993.199,155.841 995.46,148.876 993.708,144.249 C992.715,141.628 990.432,139.768 987.09,138.85 C988.64,137.688 993.304,132.934 994.858,117.065 C995.641,109.075 1006.288,94.801 1024.716,94.801 C1031.356,94.801 1038.278,96.705 1045.29,100.461 C1058.263,106.774 1066.284,116.724 1067.887,128.48 C1069.237,138.387 1065.666,147.349 1061.442,151.083 C1049.499,161.638 1048.407,168.217 1048.385,170.164 C1046.334,168.514 1044.228,167.679 1042.121,167.679 C1038.165,167.679 1032.442,170.696 1027.644,185.068 C1025.092,192.71 1028.035,198.676 1030.954,202.334 C1033.514,205.543 1036.506,207.584 1037.559,208.248 C1036.147,209.021 1031.594,212.12 1029.921,220.607 C1029.603,222.221 1029.309,223.818 1029.017,225.392 C1026.544,238.772 1024.407,250.409 1011.012,257.716 C1008.981,258.823 1006.258,259.467 1002.921,259.467 z" fill="#734B23" id="path189699"/>
    <path d="M1024.717,94.553 C1006.85,94.553 995.472,108.271 994.612,117.041 C992.769,135.858 986.481,138.949 986.481,138.949 C994.854,140.928 997.953,148.672 986.967,164.244 C982.858,170.068 977.25,171.631 972.415,171.631 C966.815,171.631 962.252,169.535 962.252,169.535 C962.252,169.535 963.695,175.832 956.839,183.192 C946.224,194.586 935.655,203.347 937.828,220.402 C939.865,236.383 981.366,259.552 1002.918,259.552 C1006.184,259.552 1008.989,259.021 1011.132,257.852 C1026.225,249.619 1027.152,235.932 1030.164,220.654 C1032.111,210.785 1038.07,208.27 1038.07,208.27 C1038.07,208.27 1023.007,199.737 1027.879,185.146 C1032.018,172.75 1037.185,167.927 1042.122,167.926 C1044.392,167.926 1046.613,168.946 1048.664,170.718 C1048.664,170.718 1047.439,163.789 1061.607,151.268 C1070.493,143.415 1075.467,114.872 1045.407,100.243 C1037.847,96.193 1030.894,94.553 1024.717,94.553 M1024.717,95.048 C1031.316,95.048 1038.198,96.943 1045.191,100.688 C1061.709,108.727 1066.517,120.257 1067.642,128.514 C1068.98,138.334 1065.453,147.208 1061.279,150.898 C1050.138,160.743 1048.38,167.204 1048.166,169.678 C1046.187,168.187 1044.158,167.431 1042.122,167.431 C1038.084,167.431 1032.255,170.478 1027.41,184.989 C1025.362,191.122 1026.521,197.173 1030.761,202.489 C1033.133,205.462 1035.81,207.407 1037.082,208.24 C1035.342,209.31 1031.248,212.602 1029.679,220.558 C1029.36,222.174 1029.063,223.786 1028.774,225.346 C1026.312,238.664 1024.187,250.167 1010.895,257.417 C1008.9,258.505 1006.216,259.057 1002.918,259.057 C992.896,259.057 977.347,253.753 963.305,245.542 C948.573,236.929 939.233,227.507 938.319,220.339 C936.408,205.339 944.475,196.89 953.815,187.106 C954.921,185.947 956.066,184.748 957.201,183.529 C962.727,177.597 963.004,172.356 962.853,170.319 C964.423,170.922 968.094,172.126 972.415,172.126 C978.783,172.126 983.815,169.57 987.372,164.53 C993.539,155.788 995.748,148.935 993.939,144.16 C992.963,141.582 990.784,139.723 987.607,138.742 C989.472,137.115 993.655,131.893 995.105,117.089 C995.88,109.179 1006.438,95.048 1024.717,95.048" fill="#40210D" id="path189701"/>
    <path d="M1094.725,11.284 L1091.684,9.73 L1088.642,8.176 L1012.04,144.192 L1020.721,148.627 L1029.402,153.062 z" fill="#181919" id="path189703"/>
    <path d="M971.322,245.439 L988.443,211.927 L979.092,207.15 C979.092,207.15 973.267,233.922 965.691,242.562 z" fill="#323333" id="path189705"/>
    <path d="M971.322,245.439 L988.443,211.927 L997.695,216.654 C997.695,216.654 979.416,237.063 976.854,248.265 z" fill="#181919" id="path189707"/>
    <path d="M939.518,200.15 C939.518,200.15 955.912,202.621 963.996,210.839 C977.915,224.989 963.337,233.023 971.966,240.56 C980.595,248.096 989.164,247.909 987.223,251.894 C984.261,257.974 985.368,259.157 976.788,255.034 C969.197,251.386 918.822,231.806 939.518,200.15" fill="#40210D" id="path189709"/>
    <path d="M966.876,247.629 C959.797,244.012 953.868,240.199 949.253,236.297 C943.047,231.049 939.162,225.609 937.706,220.128 C936.231,214.578 937.249,208.784 940.73,202.888 C943.585,203.461 949.823,204.937 955.404,207.788 C958.23,209.231 960.526,210.842 962.231,212.575 C969.143,219.601 968.159,224.598 967.208,229.431 C966.4,233.534 965.484,238.186 970.337,242.424 C972.761,244.541 975.388,246.292 978.605,247.936 C979.758,248.525 980.829,249.022 981.774,249.46 C982.533,249.811 983.187,250.114 983.75,250.402 C984.328,250.696 984.674,250.91 984.878,251.055 C984.513,251.816 984.213,252.489 983.946,253.089 C983.646,253.764 983.284,254.576 983.042,254.966 C981.985,254.784 979.134,253.414 977.86,252.802 C977.301,252.533 976.558,252.199 975.618,251.776 C973.41,250.783 970.384,249.421 966.876,247.629" fill="#5E3719" id="path189711"/>
    <path d="M993.904,176.629 L1013.747,186.766 C1013.747,186.766 1005.065,179.272 993.904,176.629" fill="#E6E6E5" id="path189713"/>
    <path d="M993.904,176.629 L1013.747,186.766 C1013.747,186.766 1001.867,184.033 993.904,176.629" fill="#B2B2B2" id="path189715"/>
    <path d="M988.049,214.492 C988.268,214.063 988.098,213.539 987.67,213.32 C987.242,213.102 986.718,213.271 986.499,213.7 C986.28,214.128 986.45,214.652 986.877,214.87 C987.306,215.089 987.83,214.92 988.049,214.492" fill="#181919" id="path189717"/>
    <path d="M985.706,213.295 C985.925,212.866 985.755,212.342 985.327,212.123 C984.899,211.905 984.375,212.074 984.156,212.503 C983.937,212.931 984.107,213.455 984.535,213.673 C984.963,213.892 985.487,213.723 985.706,213.295" fill="#181919" id="path189719"/>
    <path d="M981.021,210.901 C981.24,210.473 981.069,209.949 980.642,209.73 C980.214,209.512 979.689,209.681 979.47,210.109 C979.251,210.538 979.422,211.062 979.849,211.28 C980.277,211.499 980.802,211.33 981.021,210.901" fill="#181919" id="path189721"/>
    <path d="M990.322,215.653 C990.541,215.225 990.371,214.701 989.943,214.482 C989.515,214.264 988.991,214.433 988.772,214.861 C988.553,215.29 988.723,215.814 989.151,216.032 C989.579,216.251 990.103,216.082 990.322,215.653" fill="#181919" id="path189723"/>
    <path d="M995.076,218.082 C995.295,217.654 995.125,217.129 994.698,216.911 C994.269,216.692 993.745,216.862 993.526,217.29 C993.307,217.718 993.477,218.242 993.906,218.461 C994.333,218.68 994.857,218.51 995.076,218.082" fill="#181919" id="path189725"/>
    <path d="M1088.758,11.23 L980.213,210.46" fill-opacity="0" stroke="#E6E6E5" stroke-width="0.463" stroke-linecap="round" stroke-linejoin="round" id="path189727"/>
    <path d="M1090.858,9.901 L984.942,212.876" fill-opacity="0" stroke="#E6E6E5" stroke-width="0.463" stroke-linecap="round" stroke-linejoin="round" id="path189729"/>
    <path d="M1092.183,12.98 L994.358,217.686" fill-opacity="0" stroke="#E6E6E5" stroke-width="0.463" stroke-linecap="round" stroke-linejoin="round" id="path189731"/>
    <path d="M1092.019,10.494 L989.618,215.264" fill-opacity="0" stroke="#E6E6E5" stroke-width="0.463" stroke-linecap="round" stroke-linejoin="round" id="path189733"/>
    <path d="M1098.366,14.242 L1083.92,6.861 C1083.391,6.591 1083.195,5.904 1083.485,5.336 L1084.578,2.245 C1084.869,1.676 1085.54,1.432 1086.069,1.703 L1101.478,9.576 C1102.008,9.846 1102.203,10.533 1101.913,11.101 L1099.857,13.7 C1099.566,14.269 1098.895,14.512 1098.366,14.242" fill="#734B23" id="path189735"/>
    <path d="M1095.135,14.213 C1091.955,12.955 1088.923,11.406 1086.039,9.566 C1085.505,9.221 1085.146,8.535 1085.264,8.071 C1085.829,5.929 1087.274,5.451 1088.219,2.287 C1088.355,1.83 1089.292,1.808 1089.885,2.039 C1093.065,3.297 1096.098,4.846 1098.981,6.686 C1099.516,7.031 1100.065,7.815 1099.757,8.182 C1097.609,10.731 1098.207,12.252 1096.802,13.966 C1096.494,14.333 1095.729,14.445 1095.135,14.213" fill="#40210D" id="path189737"/>
    <path d="M1093.564,0.126 C1092.996,-0.164 1092.289,0.07 1092.023,0.592 C1092.023,0.592 1090.938,3.199 1089.015,5.293 C1087.092,7.387 1084.488,10.205 1084.488,10.205 C1084.284,10.604 1087.368,12.859 1089.588,13.955 L1096.014,1.378 z" fill="#734B23" id="path189739"/>
    <path d="M1098.372,2.582 C1098.94,2.872 1099.164,3.583 1098.897,4.105 C1098.897,4.105 1097.421,6.511 1096.851,9.297 C1096.281,12.082 1095.569,15.867 1095.569,15.867 C1095.366,16.266 1091.777,15.112 1089.587,13.955 L1096.014,1.378 z" fill="#5E3719" id="path189741"/>
    <path d="M997.341,167.389 C997.341,167.389 997.299,167.227 997.178,166.938 C997.053,166.651 996.866,166.222 996.49,165.745 C996.3,165.508 996.064,165.253 995.736,165.037 C995.411,164.825 994.973,164.661 994.482,164.67 C993.993,164.677 993.49,164.85 993.06,165.123 C992.625,165.395 992.236,165.745 991.873,166.133 C991.15,166.914 990.537,167.859 989.98,168.885 C989.841,169.142 989.705,169.405 989.569,169.672 C989.442,169.93 989.31,170.192 989.178,170.458 C988.916,170.98 988.638,171.508 988.353,172.048 C987.781,173.125 987.161,174.22 986.498,175.309 C986.166,175.853 985.825,176.395 985.473,176.933 C985.116,177.468 984.752,178 984.376,178.522 C984.001,179.045 983.611,179.556 983.211,180.052 C982.815,180.553 982.404,181.038 981.981,181.5 C981.142,182.433 980.252,183.285 979.329,184.012 C978.405,184.734 977.443,185.332 976.474,185.703 C975.99,185.885 975.508,186.004 975.041,186.061 C974.574,186.112 974.122,186.087 973.71,185.98 C972.884,185.765 972.229,185.228 971.797,184.619 C971.466,184.154 972.399,183.211 972.707,182.608 C973.034,181.966 972.78,181.18 972.138,180.852 C971.591,180.572 970.939,180.717 970.556,181.162 C970.545,181.104 970.54,181.068 970.54,181.068 C970.54,181.068 970.54,181.109 970.533,181.187 C970.476,181.258 970.423,181.336 970.38,181.42 C970.125,181.921 970.804,184.213 971.208,184.979 C971.409,185.361 971.677,185.751 972.036,186.106 C972.391,186.466 972.859,186.759 973.384,186.965 C973.911,187.168 974.501,187.266 975.099,187.267 C975.696,187.267 976.302,187.166 976.898,187 C977.492,186.832 978.073,186.592 978.639,186.307 C979.206,186.022 979.757,185.686 980.289,185.314 C981.357,184.573 982.353,183.685 983.285,182.719 C984.216,181.751 985.079,180.703 985.872,179.609 C986.672,178.519 987.399,177.383 988.064,176.24 C988.73,175.098 989.331,173.946 989.869,172.813 C990.408,171.691 990.891,170.53 991.306,169.538 C991.748,168.532 992.224,167.615 992.755,166.861 C993.287,166.117 993.914,165.554 994.544,165.437 C995.179,165.316 995.786,165.671 996.197,166.023 C996.469,166.259 995.5,166.498 995.238,167.012 C994.976,167.526 995.179,168.155 995.693,168.418 C996.207,168.68 996.836,168.476 997.098,167.963 C997.251,167.662 997.34,167.389 997.34,167.389" fill="#181919" id="path189743"/>
    <path d="M1019.22,178.567 C1019.22,178.567 1019.376,178.506 1019.682,178.434 C1019.987,178.366 1020.444,178.267 1021.052,178.293 C1021.355,178.307 1021.699,178.35 1022.067,178.488 C1022.429,178.629 1022.819,178.887 1023.099,179.29 C1023.38,179.691 1023.534,180.199 1023.565,180.708 C1023.6,181.219 1023.544,181.74 1023.442,182.262 C1023.234,183.304 1022.826,184.354 1022.322,185.408 C1022.195,185.671 1022.062,185.935 1021.925,186.202 C1021.791,186.457 1021.655,186.716 1021.517,186.979 C1021.248,187.498 1020.984,188.032 1020.712,188.58 C1020.174,189.675 1019.651,190.819 1019.157,191.993 C1018.911,192.581 1018.671,193.176 1018.442,193.777 C1018.218,194.379 1017.999,194.986 1017.798,195.596 C1017.593,196.207 1017.407,196.822 1017.24,197.437 C1017.066,198.052 1016.913,198.667 1016.787,199.282 C1016.523,200.509 1016.354,201.729 1016.306,202.903 C1016.262,204.075 1016.342,205.205 1016.609,206.207 C1016.745,206.706 1016.931,207.166 1017.159,207.579 C1017.392,207.986 1017.676,208.338 1018.005,208.609 C1018.662,209.153 1019.481,209.368 1020.228,209.362 C1020.798,209.354 1021.017,208.048 1021.324,207.447 C1021.653,206.805 1022.439,206.55 1023.081,206.878 C1023.628,207.157 1023.892,207.77 1023.756,208.342 C1023.81,208.316 1023.842,208.3 1023.842,208.3 C1023.842,208.3 1023.81,208.325 1023.749,208.374 C1023.726,208.462 1023.693,208.55 1023.65,208.635 C1023.394,209.135 1021.138,209.929 1020.28,210.049 C1019.854,210.11 1019.381,210.122 1018.883,210.038 C1018.383,209.962 1017.871,209.755 1017.396,209.45 C1016.922,209.141 1016.499,208.722 1016.147,208.238 C1015.796,207.754 1015.524,207.202 1015.31,206.624 C1015.097,206.044 1014.951,205.432 1014.851,204.806 C1014.75,204.18 1014.698,203.537 1014.688,202.888 C1014.662,201.588 1014.799,200.26 1015.035,198.94 C1015.274,197.618 1015.618,196.303 1016.039,195.02 C1016.454,193.734 1016.949,192.479 1017.484,191.27 C1018.02,190.061 1018.601,188.899 1019.203,187.798 C1019.796,186.706 1020.455,185.633 1021.015,184.715 C1021.571,183.768 1022.035,182.844 1022.334,181.972 C1022.627,181.105 1022.715,180.268 1022.441,179.688 C1022.166,179.104 1021.523,178.819 1020.997,178.692 C1020.646,178.611 1021.02,179.536 1020.758,180.049 C1020.495,180.563 1019.866,180.767 1019.352,180.505 C1018.839,180.242 1018.635,179.613 1018.897,179.099 C1019.051,178.798 1019.22,178.567 1019.22,178.567" fill="#181919" id="path189745"/>
    <path d="M1153.561,60.511 L849.105,125.888 C848.55,126.007 847.999,125.65 847.881,125.097 L847.846,124.936 C847.727,124.382 848.083,123.832 848.637,123.712 L1153.094,58.336 C1153.648,58.217 1154.199,58.573 1154.318,59.128 L1154.352,59.287 C1154.472,59.842 1154.115,60.392 1153.561,60.511" fill="#E4D7A2" id="path189747"/>
    <path d="M836.356,120.247 L838.07,128.229 L858.174,123.912 L857.696,121.767 L841.829,124.975 L840.495,119.358 z" fill="#181919" id="path189749"/>
    <path d="M1152.826,57.984 L1147.35,51.92 L1143.261,52.798 C1143.234,52.803 1143.207,52.801 1143.179,52.807 L833.936,119.212 C833.123,119.386 832.6,120.194 832.775,121.007 C832.95,121.82 833.757,122.343 834.57,122.168 L1142.796,55.983 C1143.788,57.894 1144.072,60.274 1144.072,60.274 z" fill="#734B23" id="path189751"/>
    <path d="M833.937,119.22 C833.124,119.395 832.602,120.202 832.776,121.015 C832.951,121.828 833.759,122.351 834.572,122.176 L843.177,120.328 L842.543,117.372 z" fill="#181919" id="path189753"/>
    <path d="M866.578,113.494 C866.529,113.252 866.399,112.744 866.274,112.237 L857.499,114.132 C857.507,114.404 857.538,114.697 857.601,115.01 L857.874,116.371 C857.924,116.617 857.976,116.886 858.044,117.157 L866.886,115.247 C866.726,114.385 866.578,113.494 866.578,113.494" fill="#181919" id="path189755"/>
    <path d="M891.042,108.973 L890.748,107.512 C890.712,107.336 890.673,107.155 890.631,106.978 L866.274,112.237 C866.399,112.744 866.529,113.251 866.578,113.494 C866.578,113.494 866.726,114.385 866.887,115.247 L891.214,109.994 C891.168,109.651 891.108,109.302 891.042,108.973" fill="#CBCBCB" id="path189757"/>
  </g>
</svg>